<svg xmlns="http://www.w3.org/2000/svg" width="171" height="24" fill="none" xmlns:v="https://vecta.io/nano"><g clip-path="url(#A)"><path d="M27.5 24c-1.3 0-2.1-.6-3.408-1.307S19 19.142 19 15.6c0-2.402-.619-4.346-1.674-5.894-1.047-1.537-2.465-2.601-3.94-3.353-.711-.362-1.451-.658-2.187-.903-.43-.143-.679-.604-.492-1.016C11.887 1.819 14.517 0 17.572 0c4.159 0 7.531 3.372 7.531 7.531a7.5 7.5 0 0 1-.438 2.536c1.2-.809 2.647-1.281 4.203-1.281 4.159 0 7.531 3.372 7.531 7.531C36.4 21.324 32 24 27.5 24zM0 15.69c0 3.97 2.617 7.277 6.084 8.008A4.99 4.99 0 0 0 7.8 24h11.701c.392 0 .563-.525.264-.778-2.045-1.73-3.565-4.169-3.565-7.622 0-1.897-.48-3.279-1.188-4.318-.716-1.051-1.723-1.836-2.897-2.435-1.185-.604-2.472-.988-3.701-1.261a6.95 6.95 0 0 0-.882-.055C3.372 7.531 0 11.184 0 15.69z" fill="#8fb2f5"/><path d="M49.175 19.152c-.342 0-.621-.082-.836-.247-.203-.165-.367-.424-.494-.779L43.874 6.897c-.139-.405-.114-.747.076-1.026.203-.279.538-.418 1.007-.418.342 0 .608.082.798.247.19.152.342.399.456.741l3.42 10.146h-.76L52.443 6.46c.127-.342.285-.595.475-.76s.437-.247.741-.247.545.082.722.247.329.424.456.779l3.458 10.108h-.665l3.477-10.146c.114-.329.266-.576.456-.741s.45-.247.779-.247c.405 0 .703.139.893.418s.215.621.076 1.026l-4.009 11.248c-.127.342-.291.595-.494.76s-.475.247-.817.247-.614-.082-.817-.247-.367-.424-.494-.779l-3.306-9.424h.437l-3.344 9.443c-.127.342-.291.595-.494.76-.19.165-.456.247-.798.247zm19.414.038c-1.051 0-1.957-.196-2.717-.589s-1.349-.95-1.767-1.672c-.405-.722-.608-1.577-.608-2.565 0-.963.196-1.805.589-2.527a4.42 4.42 0 0 1 1.653-1.691c.709-.418 1.514-.627 2.413-.627.659 0 1.248.108 1.767.323a3.63 3.63 0 0 1 1.349.931c.38.405.665.899.855 1.482.203.57.304 1.216.304 1.938 0 .228-.082.405-.247.532-.152.114-.374.171-.665.171h-6.099v-1.368h5.339l-.304.285c0-.583-.089-1.07-.266-1.463-.165-.393-.412-.69-.741-.893-.317-.215-.716-.323-1.197-.323-.532 0-.988.127-1.368.38-.367.241-.652.589-.855 1.045-.19.443-.285.975-.285 1.596v.133c0 1.039.241 1.818.722 2.337.494.507 1.216.76 2.166.76a6.03 6.03 0 0 0 1.102-.114 4.25 4.25 0 0 0 1.178-.437c.266-.152.5-.215.703-.19.203.013.361.082.475.209a.8.8 0 0 1 .228.475c.025.177-.013.361-.114.551-.089.19-.247.355-.475.494-.443.279-.956.488-1.539.627a7.38 7.38 0 0 1-1.596.19zm8.588 0c-.671 0-1.273-.127-1.805-.38-.519-.266-.931-.621-1.235-1.064-.291-.443-.437-.944-.437-1.501 0-.684.177-1.222.532-1.615.355-.405.931-.697 1.729-.874s1.868-.266 3.211-.266h.95v1.368h-.931c-.785 0-1.412.038-1.881.114s-.804.209-1.007.399c-.19.177-.285.431-.285.76 0 .418.146.76.437 1.026s.697.399 1.216.399a2.1 2.1 0 0 0 1.102-.285c.329-.203.589-.475.779-.817s.285-.735.285-1.178v-2.185c0-.633-.139-1.089-.418-1.368s-.747-.418-1.406-.418a5.96 5.96 0 0 0-1.197.133c-.418.089-.861.241-1.33.456-.241.114-.456.146-.646.095-.177-.051-.317-.152-.418-.304-.101-.165-.152-.342-.152-.532s.051-.374.152-.551c.101-.19.272-.329.513-.418.583-.241 1.14-.412 1.672-.513a8.17 8.17 0 0 1 1.482-.152c.912 0 1.659.139 2.242.418.595.279 1.039.703 1.33 1.273.291.557.437 1.279.437 2.166v4.56c0 .393-.095.697-.285.912-.19.203-.462.304-.817.304s-.633-.101-.836-.304c-.19-.215-.285-.519-.285-.912v-.912h.152c-.089.443-.266.83-.532 1.159-.253.317-.576.564-.969.741s-.842.266-1.349.266zm11.398 0c-.823 0-1.514-.139-2.071-.418a2.69 2.69 0 0 1-1.216-1.216c-.266-.545-.399-1.216-.399-2.014v-4.047H83.9c-.304 0-.538-.076-.703-.228-.165-.165-.247-.386-.247-.665 0-.291.082-.513.247-.665s.399-.228.703-.228h.988V7.98c0-.393.101-.69.304-.893.215-.203.513-.304.893-.304s.671.101.874.304.304.5.304.893v1.729h2.014c.304 0 .538.076.703.228s.247.374.247.665c0 .279-.082.5-.247.665-.165.152-.399.228-.703.228h-2.014v3.914c0 .608.133 1.064.399 1.368s.697.456 1.292.456a2.55 2.55 0 0 0 .57-.057 3.55 3.55 0 0 1 .437-.076c.152-.013.279.038.38.152.101.101.152.317.152.646a1.69 1.69 0 0 1-.133.684c-.076.19-.222.323-.437.399-.165.051-.38.095-.646.133a3.81 3.81 0 0 1-.703.076zm4.265-.038c-.38 0-.671-.101-.874-.304-.203-.215-.304-.519-.304-.912V6.65c0-.393.101-.69.304-.893s.494-.304.874-.304.671.101.874.304c.215.203.323.5.323.893v4.921h-.266c.279-.671.709-1.178 1.292-1.52.595-.355 1.267-.532 2.014-.532s1.362.139 1.843.418.842.703 1.084 1.273c.24.557.361 1.267.361 2.128v4.598c0 .393-.102.697-.304.912-.203.203-.495.304-.874.304s-.678-.101-.893-.304c-.203-.215-.304-.519-.304-.912v-4.484c0-.722-.139-1.248-.418-1.577-.266-.329-.684-.494-1.254-.494-.697 0-1.254.222-1.672.665-.405.431-.608 1.007-.608 1.729v4.161c0 .811-.399 1.216-1.197 1.216zm14.326.038c-1.052 0-1.957-.196-2.717-.589s-1.349-.95-1.767-1.672c-.406-.722-.608-1.577-.608-2.565 0-.963.196-1.805.589-2.527.405-.722.956-1.286 1.653-1.691.709-.418 1.513-.627 2.413-.627.658 0 1.247.108 1.767.323.532.215.981.526 1.349.931.38.405.665.899.855 1.482.202.57.304 1.216.304 1.938 0 .228-.083.405-.247.532-.152.114-.374.171-.665.171h-6.099v-1.368h5.339l-.304.285c0-.583-.089-1.07-.266-1.463-.165-.393-.412-.69-.741-.893-.317-.215-.716-.323-1.197-.323-.532 0-.988.127-1.368.38-.368.241-.653.589-.855 1.045-.19.443-.285.975-.285 1.596v.133c0 1.039.24 1.818.722 2.337.494.507 1.216.76 2.166.76a6.04 6.04 0 0 0 1.102-.114c.418-.089.81-.234 1.178-.437.266-.152.5-.215.703-.19.202.013.361.082.475.209a.81.81 0 0 1 .228.475c.025.177-.013.361-.114.551-.089.19-.247.355-.475.494a5.11 5.11 0 0 1-1.539.627 7.38 7.38 0 0 1-1.596.19zm6.745-.038c-.393 0-.697-.101-.912-.304-.203-.215-.304-.519-.304-.912v-7.182c0-.393.101-.69.304-.893s.487-.304.855-.304.652.101.855.304.304.5.304.893v1.197h-.19c.177-.76.525-1.336 1.045-1.729s1.209-.627 2.071-.703c.266-.025.475.044.627.209.164.152.259.393.285.722.025.317-.051.576-.228.779-.165.19-.418.304-.76.342l-.418.038c-.773.076-1.356.317-1.748.722-.393.393-.589.95-.589 1.672v3.933c0 .393-.102.697-.304.912-.203.203-.501.304-.893.304zm10.974 0c-.342 0-.621-.082-.836-.247-.203-.165-.367-.424-.494-.779l-3.971-11.229c-.139-.405-.114-.747.076-1.026.203-.279.538-.418 1.007-.418.342 0 .608.082.798.247.19.152.342.399.456.741l3.42 10.146h-.76l3.572-10.127c.127-.342.285-.595.475-.76s.437-.247.741-.247.545.082.722.247.329.424.456.779l3.458 10.108h-.665l3.477-10.146c.114-.329.266-.576.456-.741s.45-.247.779-.247c.405 0 .703.139.893.418s.215.621.076 1.026l-4.009 11.248c-.127.342-.291.595-.494.76s-.475.247-.817.247-.614-.082-.817-.247-.367-.424-.494-.779l-3.306-9.424h.437l-3.344 9.443c-.127.342-.291.595-.494.76-.19.165-.456.247-.798.247zm18.147-.019c-.38 0-.672-.114-.874-.342s-.304-.545-.304-.95v-6.973c0-.418.101-.735.304-.95.202-.228.494-.342.874-.342s.671.114.874.342c.215.215.323.532.323.95v6.973c0 .405-.102.722-.304.95s-.501.342-.893.342zm0-11.324c-.444 0-.792-.108-1.045-.323-.241-.228-.361-.538-.361-.931 0-.405.12-.716.361-.931.253-.215.601-.323 1.045-.323.456 0 .804.108 1.045.323s.361.526.361.931c0 .393-.121.703-.361.931-.241.215-.589.323-1.045.323zm6.875 11.381a9.4 9.4 0 0 1-1.729-.171 5.12 5.12 0 0 1-1.634-.589c-.202-.127-.348-.272-.437-.437a1.09 1.09 0 0 1-.095-.513c.026-.177.089-.329.19-.456a.79.79 0 0 1 .418-.247c.178-.038.368-.006.57.095.507.241.982.412 1.425.513a6.68 6.68 0 0 0 1.311.133c.608 0 1.058-.101 1.349-.304.304-.215.456-.494.456-.836 0-.291-.101-.513-.304-.665-.19-.165-.481-.285-.874-.361l-1.9-.361c-.785-.152-1.387-.437-1.805-.855-.405-.431-.608-.982-.608-1.653 0-.608.165-1.134.494-1.577.342-.443.811-.785 1.406-1.026s1.28-.361 2.052-.361a6.1 6.1 0 0 1 1.558.19c.494.114.969.298 1.425.551.19.101.317.234.38.399.076.165.095.336.057.513-.038.165-.114.317-.228.456-.114.127-.259.209-.437.247-.164.025-.354-.013-.57-.114-.392-.203-.772-.348-1.14-.437-.354-.089-.696-.133-1.026-.133-.62 0-1.083.108-1.387.323a1.01 1.01 0 0 0-.437.855c0 .266.089.488.266.665s.45.298.817.361l1.9.361c.824.152 1.444.431 1.862.836.431.405.646.95.646 1.634 0 .925-.361 1.653-1.083 2.185-.722.519-1.684.779-2.888.779zm10.266 0c-1.052 0-1.957-.196-2.717-.589s-1.349-.95-1.767-1.672c-.406-.722-.608-1.577-.608-2.565 0-.963.196-1.805.589-2.527.405-.722.956-1.286 1.653-1.691.709-.418 1.513-.627 2.413-.627.658 0 1.247.108 1.767.323.532.215.981.526 1.349.931.38.405.665.899.855 1.482.202.57.304 1.216.304 1.938 0 .228-.083.405-.247.532-.152.114-.374.171-.665.171h-6.099v-1.368h5.339l-.304.285c0-.583-.089-1.07-.266-1.463-.165-.393-.412-.69-.741-.893-.317-.215-.716-.323-1.197-.323-.532 0-.988.127-1.368.38-.368.241-.653.589-.855 1.045-.19.443-.285.975-.285 1.596v.133c0 1.039.24 1.818.722 2.337.494.507 1.216.76 2.166.76a6.04 6.04 0 0 0 1.102-.114c.418-.089.81-.234 1.178-.437.266-.152.5-.215.703-.19.202.013.361.082.475.209a.81.81 0 0 1 .228.475c.025.177-.013.361-.114.551-.089.19-.247.355-.475.494a5.11 5.11 0 0 1-1.539.627 7.38 7.38 0 0 1-1.596.19z" fill="#f5f5f5"/></g><defs><clipPath id="A"><path fill="#fff" d="M0 0h171v24H0z"/></clipPath></defs></svg>