<svg xmlns="http://www.w3.org/2000/svg" width="32" height="32" fill="none" xmlns:v="https://vecta.io/nano"><path d="M17 4v4a1 1 0 0 1-1 1 1 1 0 0 1-1-1V4a1 1 0 0 1 1-1 1 1 0 0 1 1 1zm11 11h-4a1 1 0 0 0-1 1 1 1 0 0 0 1 1h4a1 1 0 0 0 1-1 1 1 0 0 0-1-1zm-5.636 5.95a1 1 0 0 0-1.396.018 1 1 0 0 0-.018 1.396l2.828 2.829a1 1 0 0 0 1.415 0 1 1 0 0 0 0-1.415l-2.829-2.828zM16 23a1 1 0 0 0-1 1v4a1 1 0 0 0 1 1 1 1 0 0 0 1-1v-4a1 1 0 0 0-1-1zm-6.364-2.05l-2.829 2.828a1 1 0 0 0 0 1.415 1 1 0 0 0 1.415 0l2.828-2.829a1 1 0 0 0-.018-1.396 1 1 0 0 0-1.396-.018zM9 16a1 1 0 0 0-1-1H4a1 1 0 0 0-1 1 1 1 0 0 0 1 1h4a1 1 0 0 0 1-1zm-.777-9.192a1 1 0 0 0-1.415 0 1 1 0 0 0 0 1.415l2.829 2.828a1 1 0 0 0 1.396-.018 1 1 0 0 0 .018-1.396L8.223 6.808z" fill="#8FB2F5"/></svg>