<svg xmlns="http://www.w3.org/2000/svg" width="24" height="16" fill="#8fb2f5" xmlns:v="https://vecta.io/nano"><path d="M18.132 15.824c-.857 0-1.385-.396-2.247-.862s-3.357-2.342-3.357-4.677c0-1.584-.408-2.865-1.104-3.886-.69-1.013-1.625-1.715-2.598-2.211a10.42 10.42 0 0 0-1.442-.595c-.283-.094-.448-.398-.325-.67C7.837 1.199 9.572 0 11.586 0c2.742 0 4.966 2.223 4.966 4.966a4.96 4.96 0 0 1-.289 1.672 4.94 4.94 0 0 1 2.771-.845c2.742 0 4.965 2.223 4.965 4.966 0 3.302-2.901 5.066-5.868 5.066zM0 10.345c0 2.617 1.726 4.798 4.012 5.28a3.29 3.29 0 0 0 1.131.199h7.715c.259 0 .371-.346.174-.513-1.348-1.141-2.35-2.749-2.35-5.025 0-1.251-.317-2.162-.784-2.847-.472-.693-1.136-1.211-1.91-1.605-.782-.398-1.63-.652-2.44-.831-.191-.024-.385-.037-.582-.037C2.223 4.966 0 7.374 0 10.345z"/></svg>