<svg xmlns="http://www.w3.org/2000/svg" width="32" height="32" fill="none" xmlns:v="https://vecta.io/nano"><path d="M19.625 24.416l-4 6a.75.75 0 0 1-1.041.209.75.75 0 0 1-.209-1.041l4-6a.75.75 0 0 1 1.041-.209.75.75 0 0 1 .209 1.041zM28.75 11.5a9.26 9.26 0 0 1-9.25 9.25h-3.099l-3.776 5.666a.75.75 0 0 1-.477.32.75.75 0 0 1-.293 0c-.097-.019-.189-.057-.271-.112s-.152-.125-.207-.207a.75.75 0 0 1-.113-.563.75.75 0 0 1 .112-.271l3.224-4.834H9.5a6.25 6.25 0 0 1-4.619-2.075 6.25 6.25 0 0 1-1.566-4.816A6.25 6.25 0 0 1 5.83 9.464a6.25 6.25 0 0 1 4.945-1.089 9.26 9.26 0 0 1 10.301-5.993A9.26 9.26 0 0 1 28.75 11.5zm-1.5 0a7.76 7.76 0 0 0-2.201-5.388c-1.405-1.442-3.316-2.282-5.328-2.341s-3.969.666-5.457 2.024-2.389 3.239-2.514 5.249a.75.75 0 0 1-.794.706.75.75 0 0 1-.706-.794 9.49 9.49 0 0 1 .134-1.125 4.75 4.75 0 0 0-3.734.876 4.75 4.75 0 0 0-1.87 3.349 4.75 4.75 0 0 0 1.214 3.639A4.75 4.75 0 0 0 9.5 19.25h10a7.76 7.76 0 0 0 7.75-7.75z" fill="#fff"/></svg>