<svg xmlns="http://www.w3.org/2000/svg" width="32" height="32" fill="none" xmlns:v="https://vecta.io/nano"><path d="M16.75 19.325V11a.75.75 0 0 0-.75-.75.75.75 0 0 0-.75.75v8.325a3.75 3.75 0 0 0-2.981 4.051A3.75 3.75 0 0 0 16 26.749a3.75 3.75 0 0 0 3.731-3.373 3.75 3.75 0 0 0-2.981-4.051zM16 25.25a2.25 2.25 0 0 1-2.079-1.389 2.25 2.25 0 0 1 .488-2.452 2.25 2.25 0 0 1 2.452-.488A2.25 2.25 0 0 1 18.25 23 2.25 2.25 0 0 1 16 25.25zm4.75-8.375V6A4.75 4.75 0 0 0 16 1.25 4.75 4.75 0 0 0 11.25 6v10.875a7.75 7.75 0 0 0-2.582 8.634A7.75 7.75 0 0 0 16 30.749a7.75 7.75 0 0 0 7.332-5.24 7.75 7.75 0 0 0-2.582-8.634zM16 29.25a6.25 6.25 0 0 1-5.957-4.378 6.25 6.25 0 0 1 2.386-6.997.75.75 0 0 0 .321-.625V6A3.25 3.25 0 0 1 16 2.75 3.25 3.25 0 0 1 19.25 6v11.25a.75.75 0 0 0 .321.615 6.25 6.25 0 0 1 2.401 7.006A6.25 6.25 0 0 1 16 29.25z" fill="#fff"/></svg>