<svg xmlns="http://www.w3.org/2000/svg" width="32" height="32" fill="none" xmlns:v="https://vecta.io/nano"><path d="M21.566 6.133c-1.531-1.769-3.254-3.362-5.136-4.75a.75.75 0 0 0-.86 0c-1.883 1.388-3.605 2.981-5.136 4.75C7.043 10.033 5.25 14.136 5.25 18A10.75 10.75 0 0 0 16 28.75 10.75 10.75 0 0 0 26.75 18c0-3.864-1.793-7.967-5.184-11.868zM16 27.25A9.26 9.26 0 0 1 6.75 18c0-7.453 7.375-13.616 9.25-15.064 1.875 1.447 9.25 7.611 9.25 15.064A9.26 9.26 0 0 1 16 27.25zm6.74-8.125c-.25 1.398-.922 2.685-1.926 3.689a6.95 6.95 0 0 1-3.689 1.926c-.041.006-.083.01-.125.01a.75.75 0 0 1-.75-.687.75.75 0 0 1 .625-.803 5.5 5.5 0 0 0 4.385-4.385.75.75 0 0 1 .572-.607.75.75 0 0 1 .566.096.75.75 0 0 1 .333.468.75.75 0 0 1 .008.293z" fill="#fff"/></svg>