<svg xmlns="http://www.w3.org/2000/svg" width="32" height="32" fill="none" xmlns:v="https://vecta.io/nano"><path d="M22.75 23A3.75 3.75 0 0 1 19 26.75c-1.613 0-3.17-1.047-3.704-2.49a.75.75 0 0 1 .444-.964.75.75 0 0 1 .964.444c.313.846 1.321 1.51 2.296 1.51A2.25 2.25 0 0 0 21.25 23 2.25 2.25 0 0 0 19 20.75H5a.75.75 0 0 1-.75-.75.75.75 0 0 1 .75-.75h14A3.75 3.75 0 0 1 22.75 23zm-4-14A3.75 3.75 0 0 0 15 5.25c-1.613 0-3.17 1.048-3.704 2.49a.75.75 0 0 0 .444.964.75.75 0 0 0 .964-.444c.313-.846 1.321-1.51 2.296-1.51A2.25 2.25 0 0 1 17.25 9 2.25 2.25 0 0 1 15 11.25H3a.75.75 0 0 0-.75.75.75.75 0 0 0 .75.75h12A3.75 3.75 0 0 0 18.75 9zm7.25.25c-1.613 0-3.17 1.047-3.704 2.49a.75.75 0 0 0 .022.574.75.75 0 0 0 .421.39.75.75 0 0 0 .574-.022.75.75 0 0 0 .39-.421c.313-.846 1.321-1.51 2.296-1.51A2.25 2.25 0 0 1 28.25 13 2.25 2.25 0 0 1 26 15.25H4a.75.75 0 0 0-.75.75.75.75 0 0 0 .75.75h22A3.75 3.75 0 0 0 29.75 13 3.75 3.75 0 0 0 26 9.25z" fill="#fff"/></svg>