<svg xmlns="http://www.w3.org/2000/svg" width="220" height="220" fill="none" xmlns:v="https://vecta.io/nano"><g clip-path="url(#D)"><g filter="url(#A)"><path d="M112.089 77H108c-18.225 0-33 14.775-33 33s14.775 33 33 33h4.089c18.225 0 33-14.775 33-33s-14.775-33-33-33z" fill="#ffef9a"/></g><g filter="url(#B)"><path d="M141 110c0 17.258-13.859 31.248-30.956 31.248S79.088 127.258 79.088 110s13.859-31.248 30.956-31.248S141 92.742 141 110z" fill="url(#C)"/></g></g><defs><filter id="A" x="-2" y="0" width="224.089" height="220" filterUnits="userSpaceOnUse" color-interpolation-filters="sRGB"><feFlood flood-opacity="0"/><feBlend in="SourceGraphic"/><feGaussianBlur stdDeviation="38.5"/></filter><filter id="B" x="79.088" y="78.752" width="61.912" height="67.496" filterUnits="userSpaceOnUse" color-interpolation-filters="sRGB"><feFlood flood-opacity="0"/><feBlend in="SourceGraphic" result="B"/><feColorMatrix in="SourceAlpha" values="0 0 0 0 0 0 0 0 0 0 0 0 0 0 0 0 0 0 127 0" result="C"/><feOffset dy="5"/><feGaussianBlur stdDeviation="9"/><feComposite in2="C" operator="arithmetic" k2="-1" k3="1"/><feColorMatrix values="0 0 0 0 1 0 0 0 0 1 0 0 0 0 1 0 0 0 0.81 0"/><feBlend in2="B"/></filter><linearGradient id="C" x1="105.342" y1="127.008" x2="131.175" y2="82.125" gradientUnits="userSpaceOnUse"><stop stop-color="#f90"/><stop offset="1" stop-color="#ffee94"/></linearGradient><clipPath id="D"><path fill="#fff" d="M0 0h220v220H0z"/></clipPath></defs></svg>