<svg xmlns="http://www.w3.org/2000/svg" xmlns:xlink="http://www.w3.org/1999/xlink" width="220" height="220" fill="none" xmlns:v="https://vecta.io/nano"><style><![CDATA[.B{color-interpolation-filters:sRGB}.C{flood-opacity:0}.D{fill:#507cb1}]]></style><g filter="url(#A)"><path d="M96.327 82.087a4.08 4.08 0 0 0 .056-.677c0-2.16-1.69-3.91-3.775-3.91-1.55 0-2.882.968-3.463 2.351-.471-.421-1.082-.675-1.75-.675-1.489 0-2.696 1.264-2.696 2.824l.011.258c-.716.364-1.209 1.126-1.209 2.008 0 1.234.966 2.234 2.157 2.234h10.186c1.191 0 2.157-1 2.157-2.234 0-1.062-.715-1.952-1.674-2.179z" fill="url(#I)"/></g><g filter="url(#B)"><path d="M131.381 106.378c.171-.968.256-1.95.256-2.933 0-9.358-7.692-16.945-17.181-16.945-7.055 0-13.116 4.193-15.763 10.189-2.144-1.825-4.925-2.927-7.965-2.927-6.778 0-12.273 5.479-12.273 12.238a12.51 12.51 0 0 0 .05 1.117c-3.26 1.575-5.505 4.879-5.505 8.701 0 5.348 4.396 9.683 9.818 9.683h46.364c5.422 0 9.818-4.335 9.818-9.683 0-4.602-3.256-8.455-7.62-9.439l.001-.001z" fill="url(#J)"/></g><g filter="url(#C)"><path d="M141.592 81.514a11.68 11.68 0 0 1-.171 1.993c2.909.669 5.08 3.286 5.08 6.414 0 3.634-2.93 6.579-6.545 6.579h-9.823c-2.69-5.895-8.697-10-15.677-10a17.25 17.25 0 0 0-11.838 4.663c-.078-.409-.117-.825-.117-1.242 0-2.597 1.497-4.842 3.67-5.912-.022-.25-.034-.503-.034-.759 0-4.593 3.663-8.315 8.182-8.315a8.07 8.07 0 0 1 5.31 1.989c1.764-4.075 5.805-6.924 10.508-6.924 6.327 0 11.455 5.155 11.455 11.514z" fill="url(#K)"/></g><g filter="url(#D)" class="D"><use xlink:href="#M"/></g><g filter="url(#E)" class="D"><use xlink:href="#M" x="7.402" y="-8"/></g><g filter="url(#F)" class="D"><use xlink:href="#M" x="-8.098" y="-8"/></g><g filter="url(#G)"><path d="M126.597 122.946H84.42a3.6 3.6 0 1 0 0 7.201h42.177a3.6 3.6 0 1 0 0-7.201z" fill="#ffed8d"/></g><g filter="url(#H)"><path d="M124.816 125.5h-9.775l-4.25 11.341h7.65L114.899 151l12.892-18.575h-5.667l2.692-6.925z" fill="url(#L)"/></g><defs><filter id="A" x="83.501" y="77.5" width="14.5" height="19" filterUnits="userSpaceOnUse" class="B"><feFlood class="C"/><feBlend in="SourceGraphic" result="B"/><feColorMatrix in="SourceAlpha" values="0 0 0 0 0 0 0 0 0 0 0 0 0 0 0 0 0 0 127 0" result="C"/><feOffset dy="11"/><feGaussianBlur stdDeviation="5"/><feComposite in2="C" operator="arithmetic" k2="-1" k3="1"/><feColorMatrix values="0 0 0 0 1 0 0 0 0 1 0 0 0 0 1 0 0 0 1 0"/><feBlend in2="B"/></filter><filter id="B" x="73" y="86.5" width="66" height="49.001" filterUnits="userSpaceOnUse" class="B"><feFlood class="C"/><feBlend in="SourceGraphic" result="B"/><feColorMatrix in="SourceAlpha" values="0 0 0 0 0 0 0 0 0 0 0 0 0 0 0 0 0 0 127 0" result="C"/><feOffset dy="11"/><feGaussianBlur stdDeviation="5"/><feComposite in2="C" operator="arithmetic" k2="-1" k3="1"/><feColorMatrix values="0 0 0 0 1 0 0 0 0 1 0 0 0 0 1 0 0 0 1 0"/><feBlend in2="B"/></filter><filter id="C" x="102.501" y="70" width="44" height="36.5" filterUnits="userSpaceOnUse" class="B"><feFlood class="C"/><feBlend in="SourceGraphic" result="B"/><feColorMatrix in="SourceAlpha" values="0 0 0 0 0 0 0 0 0 0 0 0 0 0 0 0 0 0 127 0" result="C"/><feOffset dy="11"/><feGaussianBlur stdDeviation="5"/><feComposite in2="C" operator="arithmetic" k2="-1" k3="1"/><feColorMatrix values="0 0 0 0 1 0 0 0 0 1 0 0 0 0 1 0 0 0 1 0"/><feBlend in2="B"/></filter><filter id="D" x="91.599" y="136.5" width="6.789" height="13.082" filterUnits="userSpaceOnUse" class="B"><feFlood class="C"/><feBlend in="SourceGraphic" result="B"/><feColorMatrix in="SourceAlpha" values="0 0 0 0 0 0 0 0 0 0 0 0 0 0 0 0 0 0 127 0" result="C"/><feOffset dy="9"/><feGaussianBlur stdDeviation="1.5"/><feComposite in2="C" operator="arithmetic" k2="-1" k3="1"/><feColorMatrix values="0 0 0 0 1 0 0 0 0 1 0 0 0 0 1 0 0 0 0.21 0"/><feBlend in2="B"/></filter><filter id="E" x="99.001" y="128.5" width="6.789" height="13.082" filterUnits="userSpaceOnUse" class="B"><feFlood class="C"/><feBlend in="SourceGraphic" result="B"/><feColorMatrix in="SourceAlpha" values="0 0 0 0 0 0 0 0 0 0 0 0 0 0 0 0 0 0 127 0" result="C"/><feOffset dy="9"/><feGaussianBlur stdDeviation="1.5"/><feComposite in2="C" operator="arithmetic" k2="-1" k3="1"/><feColorMatrix values="0 0 0 0 1 0 0 0 0 1 0 0 0 0 1 0 0 0 0.21 0"/><feBlend in2="B"/></filter><filter id="F" x="83.501" y="128.5" width="6.789" height="13.082" filterUnits="userSpaceOnUse" class="B"><feFlood class="C"/><feBlend in="SourceGraphic" result="B"/><feColorMatrix in="SourceAlpha" values="0 0 0 0 0 0 0 0 0 0 0 0 0 0 0 0 0 0 127 0" result="C"/><feOffset dy="9"/><feGaussianBlur stdDeviation="1.5"/><feComposite in2="C" operator="arithmetic" k2="-1" k3="1"/><feColorMatrix values="0 0 0 0 1 0 0 0 0 1 0 0 0 0 1 0 0 0 0.21 0"/><feBlend in2="B"/></filter><filter id="G" x="3.819" y="45.946" width="203.379" height="161.201" filterUnits="userSpaceOnUse" class="B"><feFlood class="C"/><feBlend in="SourceGraphic"/><feGaussianBlur stdDeviation="38.5"/></filter><filter id="H" x="108.791" y="125.5" width="19" height="25.5" filterUnits="userSpaceOnUse" class="B"><feFlood class="C"/><feBlend in="SourceGraphic" result="B"/><feColorMatrix in="SourceAlpha" values="0 0 0 0 0 0 0 0 0 0 0 0 0 0 0 0 0 0 127 0" result="C"/><feOffset dx="-2"/><feGaussianBlur stdDeviation="4.5"/><feComposite in2="C" operator="arithmetic" k2="-1" k3="1"/><feColorMatrix values="0 0 0 0 1 0 0 0 0 1 0 0 0 0 1 0 0 0 0.5 0"/><feBlend in2="B"/></filter><linearGradient id="I" x1="84.423" y1="85.696" x2="99.513" y2="74.904" gradientUnits="userSpaceOnUse"><stop stop-color="#fff" stop-opacity=".65"/><stop offset="1" stop-color="#fff" stop-opacity=".58"/></linearGradient><linearGradient id="J" x1="77.199" y1="122.018" x2="143.561" y2="72.162" gradientUnits="userSpaceOnUse"><stop stop-color="#fff" stop-opacity=".65"/><stop offset="1" stop-color="#fff" stop-opacity=".58"/></linearGradient><linearGradient id="K" x1="143.702" y1="94.134" x2="98.856" y2="61.078" gradientUnits="userSpaceOnUse"><stop stop-color="#fff" stop-opacity=".65"/><stop offset="1" stop-color="#fff" stop-opacity=".58"/></linearGradient><linearGradient id="L" x1="117.189" y1="148.544" x2="133.607" y2="125.706" gradientUnits="userSpaceOnUse"><stop stop-color="#f90"/><stop offset="1" stop-color="#ffee94"/></linearGradient><path id="M" d="M94.994 136.5c-2.562 3.361-6.148 10.082 0 10.082s2.562-6.721 0-10.082z"/></defs></svg>