<svg xmlns="http://www.w3.org/2000/svg" width="512" height="512" fill="none" xmlns:v="https://vecta.io/nano"><mask id="A" maskUnits="userSpaceOnUse" x="0" y="0" width="512" height="512" mask-type="alpha"><circle cx="256" cy="256" r="256" fill="#d9d9d9"/></mask><g mask="url(#A)"><path fill="#eee" d="M0 0h512v512H0z"/><path d="M218.3 266.4c4.507 0 8.32-1.56 11.44-4.68 3.293-3.293 5.027-7.193 5.2-11.7v-144.3c-.173-6.24-3.033-10.92-8.58-14.04-2.427-1.387-5.113-2.08-8.06-2.08h-3.38V87h79.04l-.26 2.6h-3.12c-4.507 0-8.407 1.56-11.7 4.68s-4.94 6.933-4.94 11.44v144.3c0 4.507 1.647 8.407 4.94 11.7 3.293 3.12 7.193 4.68 11.7 4.68h3.12l.26 2.6h-79.04v-2.6h3.38zm258.18 46.8c-12.653 6.587-24.18 9.88-34.58 9.88s-19.76-1.473-28.08-4.42c-20.627-7.453-41.687-24.527-63.18-51.22l-68.38-84.24 61.62-81.64c1.387-1.733 2.08-3.293 2.08-4.68s-.26-2.6-.78-3.64c-1.387-2.6-3.813-3.9-7.28-3.9h-2.6V87h59.54v2.34h-1.04c-11.613 0-21.06 4.16-28.34 12.48l-50.7 60.32 70.72 87.88c15.773 20.8 30.593 35.88 44.46 45.24s29.293 14.473 46.28 15.34l.26 2.6zm-174.32 79.38c-18.893 9.533-38.047 11.093-57.46 4.68-20.627-6.587-38.393-20.627-53.3-42.12-7.973-11.44-14.82-24.7-20.54-39.78l-8.32-22.1h-61.36L87.4 326.02c-.867 2.253-1.3 4.073-1.3 5.46s.26 2.947.78 4.68c.693 1.56 1.993 3.033 3.9 4.42 2.08 1.213 4.333 1.82 6.76 1.82h2.08v2.6H43.98v-2.6h2.34c3.987 0 7.887-1.127 11.7-3.38 3.987-2.427 7.28-5.98 9.88-10.66l57.98-132.34c-6.76-15.253-13.953-25.74-21.58-31.46-6.413-4.853-12.567-7.28-18.46-7.28-5.72 0-11.093.867-16.12 2.6l-.52-2.6c12.48-6.413 24.44-9.62 35.88-9.62 14.213 0 26.953 5.547 38.22 16.64 11.093 10.92 20.887 26.693 29.38 47.32l37.7 93.08c14.213 35.187 28.773 59.367 43.68 72.54 6.067 5.373 12.307 9.1 18.72 11.18s11.787 3.12 16.12 3.12c4.507 0 8.84-.52 13-1.56l.26 2.6zM105.6 282.08h53.04l-18.2-48.1-3.64-9.88-3.12-9.1-28.08 67.08z" fill="#000"/></g></svg>