<svg xmlns="http://www.w3.org/2000/svg" width="32" height="32" fill="none" xmlns:v="https://vecta.io/nano"><path d="M15.25 5V4a.75.75 0 0 1 .75-.75.75.75 0 0 1 .75.75v1a.75.75 0 0 1-.75.75.75.75 0 0 1-.75-.75zm8.5 11a7.75 7.75 0 0 1-4.784 7.16 7.75 7.75 0 0 1-8.446-1.68 7.75 7.75 0 0 1-1.68-8.446A7.75 7.75 0 0 1 16 8.25 7.76 7.76 0 0 1 23.75 16zm-1.5 0a6.25 6.25 0 0 0-3.858-5.774 6.25 6.25 0 0 0-6.811 1.355 6.25 6.25 0 0 0-1.355 6.811A6.25 6.25 0 0 0 16 22.25c1.657-.002 3.246-.661 4.417-1.833s1.831-2.76 1.833-4.417zM7.47 8.53a.75.75 0 0 0 .535.239.75.75 0 0 0 .544-.22.75.75 0 0 0 .22-.544.75.75 0 0 0-.239-.535l-1-1a.75.75 0 0 0-1.042.018.75.75 0 0 0-.018 1.042l1 1zm0 14.94l-1 1a.75.75 0 0 0-.239.536.75.75 0 0 0 .22.543.75.75 0 0 0 .544.22.75.75 0 0 0 .535-.239l1-1a.75.75 0 0 0 .239-.536.75.75 0 0 0-.22-.543.75.75 0 0 0-.544-.22.75.75 0 0 0-.535.239zm17-17l-1 1a.75.75 0 0 0-.239.535.75.75 0 0 0 .22.544.75.75 0 0 0 .543.22.75.75 0 0 0 .536-.239l1-1a.75.75 0 0 0-.018-1.042.75.75 0 0 0-1.042-.018zm.06 17a.75.75 0 0 0-1.042.018.75.75 0 0 0-.018 1.042l1 1a.75.75 0 0 0 1.042-.018.75.75 0 0 0 .018-1.042l-1-1zM5 15.25H4a.75.75 0 0 0-.75.75.75.75 0 0 0 .75.75h1a.75.75 0 0 0 .75-.75.75.75 0 0 0-.75-.75zm11 11a.75.75 0 0 0-.75.75v1a.75.75 0 0 0 .75.75.75.75 0 0 0 .75-.75v-1a.75.75 0 0 0-.75-.75zm12-11h-1a.75.75 0 0 0-.75.75.75.75 0 0 0 .75.75h1a.75.75 0 0 0 .75-.75.75.75 0 0 0-.75-.75z" fill="#fff"/></svg>