<svg xmlns="http://www.w3.org/2000/svg" xmlns:xlink="http://www.w3.org/1999/xlink" width="220" height="220" fill="none" xmlns:v="https://vecta.io/nano"><style><![CDATA[.B{color-interpolation-filters:sRGB}.C{flood-opacity:0}.D{fill:#507cb1}]]></style><g filter="url(#A)" class="D"><use xlink:href="#M"/></g><g filter="url(#B)" class="D"><use xlink:href="#M" x="14.402" y="5.265"/></g><g filter="url(#C)" class="D"><use xlink:href="#M" x="27.776"/></g><g opacity=".4" filter="url(#D)"><path d="M112.691 72c-6.771 9.193-7.945 21.739-1.972 32.084s17.425 15.602 28.772 14.334c-2.493 3.379-5.66 6.204-9.3 8.298-14.326 8.272-32.507 3.602-40.608-10.429s-3.054-32.112 11.272-40.383c3.764-2.173 7.792-3.453 11.836-3.904z" fill="#ffee94"/></g><g filter="url(#E)"><path d="M96.327 86.781a4.08 4.08 0 0 0 .056-.677c0-2.16-1.69-3.91-3.775-3.91-1.55 0-2.881.968-3.463 2.351-.471-.421-1.082-.675-1.75-.675-1.489 0-2.696 1.264-2.696 2.824l.011.258c-.716.364-1.209 1.126-1.209 2.008 0 1.234.966 2.234 2.157 2.234h10.186c1.191 0 2.157-1 2.157-2.234 0-1.062-.715-1.952-1.674-2.179z" fill="url(#I)"/></g><g filter="url(#F)"><path d="M131.381 111.072c.169-.953.256-1.933.256-2.933 0-9.358-7.693-16.945-17.182-16.945-7.054 0-13.116 4.193-15.762 10.189-2.144-1.825-4.925-2.927-7.965-2.927-6.778 0-12.273 5.479-12.273 12.238a12.51 12.51 0 0 0 .05 1.117c-3.26 1.575-5.505 4.879-5.505 8.7 0 5.348 4.396 9.683 9.818 9.683h46.364c5.422 0 9.818-4.335 9.818-9.683 0-4.602-3.255-8.455-7.619-9.439z" fill="url(#J)"/></g><g filter="url(#G)"><path d="M141.592 86.208a11.68 11.68 0 0 1-.171 1.993c2.909.669 5.08 3.287 5.08 6.414 0 3.634-2.93 6.579-6.545 6.579h-9.823c-2.689-5.895-8.697-10-15.677-10a17.25 17.25 0 0 0-11.838 4.663c-.078-.41-.117-.826-.117-1.243a6.58 6.58 0 0 1 3.67-5.912 8.36 8.36 0 0 1-.034-.759c0-4.593 3.663-8.315 8.182-8.315 2.026 0 3.881.749 5.31 1.989 1.764-4.074 5.805-6.923 10.508-6.923 6.327 0 11.455 5.155 11.455 11.514z" fill="url(#K)"/></g><g filter="url(#H)"><path d="M108.698 81.901c.863-2.142 1.992-4.167 3.362-6.027-3.691.412-7.369 1.58-10.805 3.564-7.478 4.318-12.186 11.563-13.465 19.371a12.36 12.36 0 0 1 2.937-.353c3.04 0 5.822 1.102 7.965 2.927a16.99 16.99 0 0 1 3.924-5.526c-.078-.41-.117-.826-.117-1.243a6.58 6.58 0 0 1 3.67-5.912 8.36 8.36 0 0 1-.034-.759c0-2.38.984-4.527 2.561-6.043l.002.001z" fill="url(#L)"/></g><defs><filter id="A" x="87.697" y="133.429" width="6.789" height="13.082" filterUnits="userSpaceOnUse" class="B"><feFlood class="C"/><feBlend in="SourceGraphic" result="B"/><feColorMatrix in="SourceAlpha" values="0 0 0 0 0 0 0 0 0 0 0 0 0 0 0 0 0 0 127 0" result="C"/><feOffset dy="9"/><feGaussianBlur stdDeviation="1.5"/><feComposite in2="C" operator="arithmetic" k2="-1" k3="1"/><feColorMatrix values="0 0 0 0 1 0 0 0 0 1 0 0 0 0 1 0 0 0 0.21 0"/><feBlend in2="B"/></filter><filter id="B" x="102.099" y="138.694" width="6.789" height="13.082" filterUnits="userSpaceOnUse" class="B"><feFlood class="C"/><feBlend in="SourceGraphic" result="B"/><feColorMatrix in="SourceAlpha" values="0 0 0 0 0 0 0 0 0 0 0 0 0 0 0 0 0 0 127 0" result="C"/><feOffset dy="9"/><feGaussianBlur stdDeviation="1.5"/><feComposite in2="C" operator="arithmetic" k2="-1" k3="1"/><feColorMatrix values="0 0 0 0 1 0 0 0 0 1 0 0 0 0 1 0 0 0 0.21 0"/><feBlend in2="B"/></filter><filter id="C" x="115.473" y="133.429" width="6.789" height="13.082" filterUnits="userSpaceOnUse" class="B"><feFlood class="C"/><feBlend in="SourceGraphic" result="B"/><feColorMatrix in="SourceAlpha" values="0 0 0 0 0 0 0 0 0 0 0 0 0 0 0 0 0 0 127 0" result="C"/><feOffset dy="9"/><feGaussianBlur stdDeviation="1.5"/><feComposite in2="C" operator="arithmetic" k2="-1" k3="1"/><feColorMatrix values="0 0 0 0 1 0 0 0 0 1 0 0 0 0 1 0 0 0 0.21 0"/><feBlend in2="B"/></filter><filter id="D" x="32.718" y="19" width="159.773" height="164.807" filterUnits="userSpaceOnUse" class="B"><feFlood class="C"/><feBlend in="SourceGraphic"/><feGaussianBlur stdDeviation="26.5"/></filter><filter id="E" x="83.501" y="82.194" width="14.5" height="19" filterUnits="userSpaceOnUse" class="B"><feFlood class="C"/><feBlend in="SourceGraphic" result="B"/><feColorMatrix in="SourceAlpha" values="0 0 0 0 0 0 0 0 0 0 0 0 0 0 0 0 0 0 127 0" result="C"/><feOffset dy="11"/><feGaussianBlur stdDeviation="5"/><feComposite in2="C" operator="arithmetic" k2="-1" k3="1"/><feColorMatrix values="0 0 0 0 1 0 0 0 0 1 0 0 0 0 1 0 0 0 1 0"/><feBlend in2="B"/></filter><filter id="F" x="73" y="91.194" width="66" height="49" filterUnits="userSpaceOnUse" class="B"><feFlood class="C"/><feBlend in="SourceGraphic" result="B"/><feColorMatrix in="SourceAlpha" values="0 0 0 0 0 0 0 0 0 0 0 0 0 0 0 0 0 0 127 0" result="C"/><feOffset dy="11"/><feGaussianBlur stdDeviation="5"/><feComposite in2="C" operator="arithmetic" k2="-1" k3="1"/><feColorMatrix values="0 0 0 0 1 0 0 0 0 1 0 0 0 0 1 0 0 0 1 0"/><feBlend in2="B"/></filter><filter id="G" x="102.501" y="74.694" width="44" height="36.5" filterUnits="userSpaceOnUse" class="B"><feFlood class="C"/><feBlend in="SourceGraphic" result="B"/><feColorMatrix in="SourceAlpha" values="0 0 0 0 0 0 0 0 0 0 0 0 0 0 0 0 0 0 127 0" result="C"/><feOffset dy="11"/><feGaussianBlur stdDeviation="5"/><feComposite in2="C" operator="arithmetic" k2="-1" k3="1"/><feColorMatrix values="0 0 0 0 1 0 0 0 0 1 0 0 0 0 1 0 0 0 1 0"/><feBlend in2="B"/></filter><filter id="H" x="87.79" y="75.874" width="24.27" height="29.509" filterUnits="userSpaceOnUse" class="B"><feFlood class="C"/><feBlend in="SourceGraphic" result="B"/><feColorMatrix in="SourceAlpha" values="0 0 0 0 0 0 0 0 0 0 0 0 0 0 0 0 0 0 127 0" result="C"/><feOffset dy="4"/><feGaussianBlur stdDeviation="4"/><feComposite in2="C" operator="arithmetic" k2="-1" k3="1"/><feColorMatrix values="0 0 0 0 1 0 0 0 0 1 0 0 0 0 1 0 0 0 0.55 0"/><feBlend in2="B"/></filter><linearGradient id="I" x1="84.423" y1="90.39" x2="99.513" y2="79.598" gradientUnits="userSpaceOnUse"><stop stop-color="#fff" stop-opacity=".65"/><stop offset="1" stop-color="#fff" stop-opacity=".58"/></linearGradient><linearGradient id="J" x1="77.199" y1="126.712" x2="143.561" y2="76.856" gradientUnits="userSpaceOnUse"><stop stop-color="#fff" stop-opacity=".65"/><stop offset="1" stop-color="#fff" stop-opacity=".58"/></linearGradient><linearGradient id="K" x1="143.702" y1="98.828" x2="98.856" y2="65.772" gradientUnits="userSpaceOnUse"><stop stop-color="#fff" stop-opacity=".65"/><stop offset="1" stop-color="#fff" stop-opacity=".58"/></linearGradient><linearGradient id="L" x1="113.406" y1="71.424" x2="103.594" y2="130.836" gradientUnits="userSpaceOnUse"><stop stop-color="#ffee94"/><stop offset="1" stop-color="#f90"/></linearGradient><path id="M" d="M91.092 133.429c-2.562 3.361-6.148 10.082 0 10.082s2.562-6.721 0-10.082h0z"/></defs></svg>