<svg xmlns="http://www.w3.org/2000/svg" xmlns:xlink="http://www.w3.org/1999/xlink" width="220" height="220" fill="none" xmlns:v="https://vecta.io/nano"><style><![CDATA[.B{color-interpolation-filters:sRGB}.C{flood-opacity:0}]]></style><g filter="url(#A)"><path d="M143.224 89.385c.123-.701.185-1.411.185-2.123 0-6.772-5.541-12.262-12.377-12.262-5.081 0-9.448 3.034-11.354 7.373-1.544-1.321-3.548-2.118-5.737-2.118a8.85 8.85 0 0 0-8.84 8.856 9 9 0 0 0 .036.808c-2.348 1.14-3.965 3.531-3.965 6.296 0 3.87 3.166 7.007 7.072 7.007h33.397c3.905 0 7.072-3.137 7.072-7.007 0-3.331-2.346-6.117-5.489-6.83z" fill="url(#H)"/></g><g filter="url(#B)"><path d="M118.69 82.6c-6.771 9.193-7.945 21.739-1.972 32.084s17.425 15.602 28.772 14.334c-2.493 3.379-5.66 6.204-9.3 8.298-14.326 8.272-32.507 3.602-40.608-10.429s-3.054-32.112 11.272-40.383c3.764-2.173 7.792-3.453 11.836-3.904z" fill="#ffee94"/></g><g filter="url(#C)"><path d="M118.059 86.474c-6.181 8.392-7.252 19.844-1.8 29.288s15.906 14.241 26.264 13.085c-2.202 2.99-5.053 5.591-8.489 7.575-13.078 7.55-29.674 3.288-37.069-9.521s-2.788-29.312 10.289-36.863c3.436-1.984 7.114-3.152 10.805-3.564z" fill="url(#I)"/></g><g filter="url(#D)"><path d="M114.051 131.793a12.28 12.28 0 0 0 .185-2.122c0-6.772-5.541-12.262-12.376-12.262-5.081 0-9.447 3.034-11.353 7.373-1.544-1.321-3.548-2.118-5.737-2.118a8.85 8.85 0 0 0-8.84 8.856c0 .27.012.539.036.808-2.349 1.139-3.966 3.531-3.966 6.296 0 3.87 3.166 7.007 7.072 7.007h33.396c3.906 0 7.072-3.137 7.072-7.007 0-3.33-2.345-6.118-5.489-6.831z" fill="url(#J)"/></g><g filter="url(#E)"><path d="M95.707 87.259c-2.84 1.261-3.949 2.327-4.965 4.965-.809-2.556-1.804-3.697-4.965-4.965 3.252-1.059 4.134-2.286 4.965-4.965 1.021 2.47 1.652 3.817 4.965 4.965z" fill="url(#K)"/></g><g filter="url(#F)"><path d="M141.356 114.541c-2.841 1.261-3.949 2.327-4.965 4.965-.809-2.556-1.804-3.697-4.965-4.965 3.252-1.059 4.134-2.286 4.965-4.965 1.021 2.47 1.652 3.817 4.965 4.965z" fill="url(#L)"/></g><g filter="url(#G)"><path d="M83.422 94.255c-1.122.498-1.559.919-1.961 1.961-.32-1.01-.713-1.46-1.961-1.961 1.284-.418 1.632-.903 1.961-1.961.403.975.652 1.507 1.961 1.961z" fill="url(#M)"/></g><defs><filter id="A" x="101.172" y="75" width="47.541" height="38.222" filterUnits="userSpaceOnUse" class="B"><feFlood class="C"/><feBlend in="SourceGraphic" result="B"/><feColorMatrix in="SourceAlpha" values="0 0 0 0 0 0 0 0 0 0 0 0 0 0 0 0 0 0 127 0" result="C"/><feOffset dy="11"/><feGaussianBlur stdDeviation="5"/><feComposite in2="C" operator="arithmetic" k2="-1" k3="1"/><feColorMatrix values="0 0 0 0 1 0 0 0 0 1 0 0 0 0 1 0 0 0 1 0"/><feBlend in2="B"/></filter><filter id="B" x="38.717" y="29.6" width="159.773" height="164.807" filterUnits="userSpaceOnUse" class="B"><feFlood class="C"/><feBlend in="SourceGraphic"/><feGaussianBlur stdDeviation="26.5"/></filter><filter id="C" x="93.437" y="86.474" width="49.086" height="57.682" filterUnits="userSpaceOnUse" class="B"><feFlood class="C"/><feBlend in="SourceGraphic" result="B"/><feColorMatrix in="SourceAlpha" values="0 0 0 0 0 0 0 0 0 0 0 0 0 0 0 0 0 0 127 0" result="C"/><feOffset dy="4"/><feGaussianBlur stdDeviation="4"/><feComposite in2="C" operator="arithmetic" k2="-1" k3="1"/><feColorMatrix values="0 0 0 0 1 0 0 0 0 1 0 0 0 0 1 0 0 0 0.55 0"/><feBlend in2="B"/></filter><filter id="D" x="72" y="117.409" width="47.54" height="38.222" filterUnits="userSpaceOnUse" class="B"><feFlood class="C"/><feBlend in="SourceGraphic" result="B"/><feColorMatrix in="SourceAlpha" values="0 0 0 0 0 0 0 0 0 0 0 0 0 0 0 0 0 0 127 0" result="C"/><feOffset dy="11"/><feGaussianBlur stdDeviation="5"/><feComposite in2="C" operator="arithmetic" k2="-1" k3="1"/><feColorMatrix values="0 0 0 0 1 0 0 0 0 1 0 0 0 0 1 0 0 0 1 0"/><feBlend in2="B"/></filter><filter id="E" x="77.009" y="79.526" width="27.466" height="27.466" filterUnits="userSpaceOnUse" class="B"><feFlood result="A" class="C"/><feColorMatrix in="SourceAlpha" values="0 0 0 0 0 0 0 0 0 0 0 0 0 0 0 0 0 0 127 0" result="B"/><feOffset dy="6"/><feGaussianBlur stdDeviation="4.384"/><feColorMatrix values="0 0 0 0 0.278813 0 0 0 0 0.232917 0 0 0 0 0.5375 0 0 0 1 0"/><feBlend in2="A"/><feBlend in="SourceGraphic" result="D"/><feColorMatrix in="SourceAlpha" values="0 0 0 0 0 0 0 0 0 0 0 0 0 0 0 0 0 0 127 0" result="B"/><feOffset dy="4"/><feGaussianBlur stdDeviation="2"/><feComposite in2="B" operator="arithmetic" k2="-1" k3="1"/><feColorMatrix values="0 0 0 0 1 0 0 0 0 1 0 0 0 0 1 0 0 0 0.44 0"/><feBlend in2="D"/></filter><filter id="F" x="122.658" y="106.808" width="27.466" height="27.466" filterUnits="userSpaceOnUse" class="B"><feFlood result="A" class="C"/><feColorMatrix in="SourceAlpha" values="0 0 0 0 0 0 0 0 0 0 0 0 0 0 0 0 0 0 127 0" result="B"/><feOffset dy="6"/><feGaussianBlur stdDeviation="4.384"/><feColorMatrix values="0 0 0 0 0.278813 0 0 0 0 0.232917 0 0 0 0 0.5375 0 0 0 1 0"/><feBlend in2="A"/><feBlend in="SourceGraphic" result="D"/><feColorMatrix in="SourceAlpha" values="0 0 0 0 0 0 0 0 0 0 0 0 0 0 0 0 0 0 127 0" result="B"/><feOffset dy="4"/><feGaussianBlur stdDeviation="2"/><feComposite in2="B" operator="arithmetic" k2="-1" k3="1"/><feColorMatrix values="0 0 0 0 1 0 0 0 0 1 0 0 0 0 1 0 0 0 0.44 0"/><feBlend in2="D"/></filter><filter id="G" x="70.732" y="89.526" width="21.458" height="21.458" filterUnits="userSpaceOnUse" class="B"><feFlood result="A" class="C"/><feColorMatrix in="SourceAlpha" values="0 0 0 0 0 0 0 0 0 0 0 0 0 0 0 0 0 0 127 0" result="B"/><feOffset dy="6"/><feGaussianBlur stdDeviation="4.384"/><feColorMatrix values="0 0 0 0 0.278813 0 0 0 0 0.232917 0 0 0 0 0.5375 0 0 0 1 0"/><feBlend in2="A"/><feBlend in="SourceGraphic" result="D"/><feColorMatrix in="SourceAlpha" values="0 0 0 0 0 0 0 0 0 0 0 0 0 0 0 0 0 0 127 0" result="B"/><feOffset dy="4"/><feGaussianBlur stdDeviation="2"/><feComposite in2="B" operator="arithmetic" k2="-1" k3="1"/><feColorMatrix values="0 0 0 0 1 0 0 0 0 1 0 0 0 0 1 0 0 0 0.44 0"/><feBlend in2="D"/></filter><linearGradient id="H" x1="3248.2" y1="2090.3" x2="4622.49" y2="359.09" xlink:href="#N"><stop stop-color="#fff"/><stop offset="1" stop-color="#fff" stop-opacity=".58"/></linearGradient><linearGradient id="I" x1="4089.31" y1="2917.11" x2="3516.25" y2="6089.94" xlink:href="#N"><stop stop-color="#ffdf33"/><stop offset="1" stop-color="#f90"/></linearGradient><linearGradient id="J" x1="1832.12" y1="3329.55" x2="3206.42" y2="1598.37" xlink:href="#N"><stop stop-color="#fff"/></linearGradient><linearGradient id="K" x1="595.236" y1="711.816" x2="641.639" y2="624.681" xlink:href="#N"><stop stop-color="#f90"/><stop offset="1" stop-color="#ffe141"/></linearGradient><linearGradient id="L" x1="1094.18" y1="1010" x2="1140.59" y2="922.873" xlink:href="#N"><stop stop-color="#f90"/><stop offset="1" stop-color="#ffe03d"/></linearGradient><linearGradient id="M" x1="247.73" y1="355.48" x2="254.966" y2="341.89" xlink:href="#N"><stop stop-color="#f90"/><stop offset=".932" stop-color="#edc314"/><stop offset="1" stop-color="#ffee94"/></linearGradient><linearGradient id="N" gradientUnits="userSpaceOnUse"/></defs></svg>