<svg xmlns="http://www.w3.org/2000/svg" width="220" height="220" fill="none" xmlns:v="https://vecta.io/nano"><style><![CDATA[.B{color-interpolation-filters:sRGB}.C{flood-opacity:0}]]></style><g filter="url(#A)"><path d="M116.19 80.306c-6.771 9.193-7.945 21.739-1.972 32.084s17.425 15.602 28.772 14.334c-2.493 3.379-5.66 6.204-9.3 8.298-14.326 8.272-32.507 3.602-40.608-10.429s-3.054-32.112 11.272-40.383c3.764-2.173 7.792-3.453 11.836-3.904z" fill="#ffee94"/></g><g filter="url(#B)"><path d="M115.559 84.18c-6.181 8.392-7.252 19.844-1.8 29.288s15.906 14.241 26.264 13.085c-2.276 3.085-5.166 5.664-8.489 7.575-13.078 7.55-29.674 3.288-37.069-9.521s-2.788-29.312 10.289-36.863c3.436-1.984 7.114-3.152 10.805-3.564z" fill="url(#F)"/></g><g filter="url(#C)"><path d="M80.922 91.961c-1.122.498-1.559.919-1.961 1.961-.32-1.01-.713-1.46-1.961-1.961 1.284-.418 1.632-.903 1.961-1.961.403.975.652 1.507 1.961 1.961z" fill="url(#G)"/></g><g filter="url(#D)"><path d="M93.207 84.965c-2.84 1.261-3.949 2.327-4.965 4.965-.809-2.556-1.804-3.697-4.965-4.965 3.252-1.059 4.134-2.286 4.965-4.965 1.021 2.47 1.652 3.817 4.965 4.965z" fill="url(#H)"/></g><g filter="url(#E)"><path d="M138.856 112.247c-2.841 1.261-3.949 2.327-4.965 4.965-.809-2.556-1.804-3.697-4.965-4.965 3.252-1.059 4.134-2.286 4.965-4.965 1.021 2.47 1.652 3.817 4.965 4.965z" fill="url(#I)"/></g><defs><filter id="A" x="36.217" y="27.306" width="159.773" height="164.807" filterUnits="userSpaceOnUse" class="B"><feFlood class="C"/><feBlend in="SourceGraphic"/><feGaussianBlur stdDeviation="26.5"/></filter><filter id="B" x="90.937" y="84.18" width="49.086" height="57.682" filterUnits="userSpaceOnUse" class="B"><feFlood class="C"/><feBlend in="SourceGraphic" result="B"/><feColorMatrix in="SourceAlpha" values="0 0 0 0 0 0 0 0 0 0 0 0 0 0 0 0 0 0 127 0" result="C"/><feOffset dy="4"/><feGaussianBlur stdDeviation="4"/><feComposite in2="C" operator="arithmetic" k2="-1" k3="1"/><feColorMatrix values="0 0 0 0 1 0 0 0 0 1 0 0 0 0 1 0 0 0 0.55 0"/><feBlend in2="B"/></filter><filter id="C" x="68.232" y="87.232" width="21.458" height="21.458" filterUnits="userSpaceOnUse" class="B"><feFlood result="A" class="C"/><feColorMatrix in="SourceAlpha" values="0 0 0 0 0 0 0 0 0 0 0 0 0 0 0 0 0 0 127 0" result="B"/><feOffset dy="6"/><feGaussianBlur stdDeviation="4.384"/><feColorMatrix values="0 0 0 0 0.278813 0 0 0 0 0.232917 0 0 0 0 0.5375 0 0 0 1 0"/><feBlend in2="A"/><feBlend in="SourceGraphic" result="D"/><feColorMatrix in="SourceAlpha" values="0 0 0 0 0 0 0 0 0 0 0 0 0 0 0 0 0 0 127 0" result="B"/><feOffset dy="4"/><feGaussianBlur stdDeviation="2"/><feComposite in2="B" operator="arithmetic" k2="-1" k3="1"/><feColorMatrix values="0 0 0 0 1 0 0 0 0 1 0 0 0 0 1 0 0 0 0.44 0"/><feBlend in2="D"/></filter><filter id="D" x="74.509" y="77.232" width="27.466" height="27.466" filterUnits="userSpaceOnUse" class="B"><feFlood result="A" class="C"/><feColorMatrix in="SourceAlpha" values="0 0 0 0 0 0 0 0 0 0 0 0 0 0 0 0 0 0 127 0" result="B"/><feOffset dy="6"/><feGaussianBlur stdDeviation="4.384"/><feColorMatrix values="0 0 0 0 0.278813 0 0 0 0 0.232917 0 0 0 0 0.5375 0 0 0 1 0"/><feBlend in2="A"/><feBlend in="SourceGraphic" result="D"/><feColorMatrix in="SourceAlpha" values="0 0 0 0 0 0 0 0 0 0 0 0 0 0 0 0 0 0 127 0" result="B"/><feOffset dy="4"/><feGaussianBlur stdDeviation="2"/><feComposite in2="B" operator="arithmetic" k2="-1" k3="1"/><feColorMatrix values="0 0 0 0 1 0 0 0 0 1 0 0 0 0 1 0 0 0 0.44 0"/><feBlend in2="D"/></filter><filter id="E" x="120.158" y="104.514" width="27.466" height="27.466" filterUnits="userSpaceOnUse" class="B"><feFlood result="A" class="C"/><feColorMatrix in="SourceAlpha" values="0 0 0 0 0 0 0 0 0 0 0 0 0 0 0 0 0 0 127 0" result="B"/><feOffset dy="6"/><feGaussianBlur stdDeviation="4.384"/><feColorMatrix values="0 0 0 0 0.278813 0 0 0 0 0.232917 0 0 0 0 0.5375 0 0 0 1 0"/><feBlend in2="A"/><feBlend in="SourceGraphic" result="D"/><feColorMatrix in="SourceAlpha" values="0 0 0 0 0 0 0 0 0 0 0 0 0 0 0 0 0 0 127 0" result="B"/><feOffset dy="4"/><feGaussianBlur stdDeviation="2"/><feComposite in2="B" operator="arithmetic" k2="-1" k3="1"/><feColorMatrix values="0 0 0 0 1 0 0 0 0 1 0 0 0 0 1 0 0 0 0.44 0"/><feBlend in2="D"/></filter><linearGradient id="F" x1="116.905" y1="79.73" x2="107.093" y2="139.142" gradientUnits="userSpaceOnUse"><stop stop-color="#ffee94"/><stop offset="1" stop-color="#f90"/></linearGradient><linearGradient id="G" x1="78.394" y1="94.105" x2="80.239" y2="90.64" gradientUnits="userSpaceOnUse"><stop stop-color="#f90"/><stop offset="1" stop-color="#ffee94"/></linearGradient><linearGradient id="H" x1="86.805" y1="90.396" x2="91.478" y2="81.621" gradientUnits="userSpaceOnUse"><stop stop-color="#f90"/><stop offset="1" stop-color="#ffee94"/></linearGradient><linearGradient id="I" x1="132.454" y1="117.677" x2="137.128" y2="108.903" gradientUnits="userSpaceOnUse"><stop stop-color="#f90"/><stop offset="1" stop-color="#ffee94"/></linearGradient></defs></svg>