<svg xmlns="http://www.w3.org/2000/svg" width="220" height="220" fill="none" xmlns:v="https://vecta.io/nano"><style><![CDATA[.B{color-interpolation-filters:sRGB}.C{flood-opacity:0}]]></style><g clip-path="url(#H)"><g filter="url(#A)"><path d="M158.918 88.687a10.51 10.51 0 0 0 .162-1.847c0-5.893-4.839-10.671-10.808-10.671-4.438 0-8.251 2.64-9.915 6.416a7.7 7.7 0 0 0-5.011-1.843c-4.263 0-7.72 3.45-7.72 7.707 0 .235.011.469.032.703-2.051.992-3.463 3.073-3.463 5.479 0 3.368 2.765 6.098 6.176 6.098h29.165c3.411 0 6.176-2.73 6.176-6.098 0-2.898-2.048-5.324-4.794-5.944z" fill="url(#E)"/></g><g filter="url(#B)"><path d="M119.563 75h-4.093c-18.246 0-33.038 14.792-33.038 33.038s14.792 33.038 33.038 33.038h4.093c18.246 0 33.038-14.792 33.038-33.038S137.809 75 119.563 75z" fill="#ffef9a"/></g><g filter="url(#C)"><path d="M148.508 108.038c0 17.278-13.875 31.284-30.991 31.284s-30.992-14.006-30.992-31.284 13.875-31.284 30.992-31.284 30.991 14.006 30.991 31.284z" fill="url(#F)"/></g><g filter="url(#D)"><path d="M109.957 126.349a15.46 15.46 0 0 0 .237-2.708c0-8.638-7.11-15.641-15.88-15.641-6.52 0-12.122 3.87-14.568 9.406-1.981-1.685-4.552-2.703-7.362-2.703-6.264 0-11.343 5.058-11.343 11.297 0 .347.016.691.047 1.031-3.013 1.453-5.088 4.504-5.088 8.031 0 4.936 4.063 8.938 9.074 8.938h42.852c5.011 0 9.074-4.002 9.074-8.938 0-4.248-3.009-7.804-7.043-8.713z" fill="url(#G)"/></g></g><defs><filter id="A" x="122.195" y="76.169" width="41.517" height="34.56" filterUnits="userSpaceOnUse" class="B"><feFlood class="C"/><feBlend in="SourceGraphic" result="B"/><feColorMatrix in="SourceAlpha" values="0 0 0 0 0 0 0 0 0 0 0 0 0 0 0 0 0 0 127 0" result="C"/><feOffset dy="11"/><feGaussianBlur stdDeviation="5"/><feComposite in2="C" operator="arithmetic" k2="-1" k3="1"/><feColorMatrix values="0 0 0 0 1 0 0 0 0 1 0 0 0 0 1 0 0 0 1 0"/><feBlend in2="B"/></filter><filter id="B" x="5.432" y="-2" width="224.169" height="220.076" filterUnits="userSpaceOnUse" class="B"><feFlood class="C"/><feBlend in="SourceGraphic"/><feGaussianBlur stdDeviation="38.5"/></filter><filter id="C" x="86.525" y="76.754" width="61.983" height="67.568" filterUnits="userSpaceOnUse" class="B"><feFlood class="C"/><feBlend in="SourceGraphic" result="B"/><feColorMatrix in="SourceAlpha" values="0 0 0 0 0 0 0 0 0 0 0 0 0 0 0 0 0 0 127 0" result="C"/><feOffset dy="5"/><feGaussianBlur stdDeviation="9"/><feComposite in2="C" operator="arithmetic" k2="-1" k3="1"/><feColorMatrix values="0 0 0 0 1 0 0 0 0 1 0 0 0 0 1 0 0 0 0.81 0"/><feBlend in2="B"/></filter><filter id="D" x="56" y="108" width="61" height="46" filterUnits="userSpaceOnUse" class="B"><feFlood class="C"/><feBlend in="SourceGraphic" result="B"/><feColorMatrix in="SourceAlpha" values="0 0 0 0 0 0 0 0 0 0 0 0 0 0 0 0 0 0 127 0" result="C"/><feOffset dy="11"/><feGaussianBlur stdDeviation="5"/><feComposite in2="C" operator="arithmetic" k2="-1" k3="1"/><feColorMatrix values="0 0 0 0 1 0 0 0 0 1 0 0 0 0 1 0 0 0 1 0"/><feBlend in2="B"/></filter><linearGradient id="E" x1="124.836" y1="98.536" x2="166.613" y2="67.184" gradientUnits="userSpaceOnUse"><stop stop-color="#fff"/><stop offset="1" stop-color="#fff" stop-opacity=".58"/></linearGradient><linearGradient id="F" x1="112.809" y1="125.066" x2="138.672" y2="80.131" gradientUnits="userSpaceOnUse"><stop stop-color="#f90"/><stop offset="1" stop-color="#ffee94"/></linearGradient><linearGradient id="G" x1="59.88" y1="140.786" x2="121.159" y2="94.691" gradientUnits="userSpaceOnUse"><stop stop-color="#e3e3e1"/><stop offset="1" stop-color="#fcfcfc"/></linearGradient><clipPath id="H"><path fill="#fff" d="M0 0h220v220H0z"/></clipPath></defs></svg>