<svg xmlns="http://www.w3.org/2000/svg" xmlns:xlink="http://www.w3.org/1999/xlink" width="220" height="220" fill="none" xmlns:v="https://vecta.io/nano"><style><![CDATA[.B{color-interpolation-filters:sRGB}.C{flood-opacity:0}]]></style><g opacity=".4" filter="url(#A)"><path d="M112.691 69c-6.77 9.193-7.944 21.739-1.972 32.084s17.425 15.602 28.772 14.334a30.39 30.39 0 0 1-9.3 8.298c-14.326 8.272-32.507 3.602-40.608-10.429s-3.055-32.112 11.272-40.383c3.763-2.173 7.793-3.453 11.836-3.904z" fill="#ffee94"/></g><g filter="url(#B)"><path d="M100.494 135.694c-2.562 3.361-6.148 10.082 0 10.082s2.562-6.721 0-10.082z" fill="#507cb1"/></g><g filter="url(#C)"><path d="M87.396 129.194c-2.562 3.361-6.148 10.082 0 10.082s2.562-6.721 0-10.082z" fill="#507cb1"/></g><g filter="url(#D)"><path d="M127.097 123.64H84.92a3.6 3.6 0 1 0 0 7.201h42.177a3.6 3.6 0 1 0 0-7.201z" fill="#ffed8d"/></g><g filter="url(#E)"><path d="M128.291 133.119h-5.667l2.303-5.925h-9.761l-3.875 10.341h7.65l-3.542 14.159 12.892-18.575z" fill="url(#J)"/></g><g filter="url(#F)"><path d="M96.327 83.781a4.08 4.08 0 0 0 .056-.677c0-2.16-1.69-3.91-3.775-3.91-1.55 0-2.882.968-3.463 2.351-.471-.421-1.082-.675-1.75-.675-1.489 0-2.696 1.264-2.696 2.824l.011.258c-.716.364-1.209 1.126-1.209 2.008 0 1.234.966 2.234 2.157 2.234h10.186c1.191 0 2.157-1 2.157-2.234 0-1.062-.715-1.952-1.674-2.179z" fill="url(#K)"/></g><g filter="url(#G)"><path d="M131.381 108.072c.171-.968.256-1.95.256-2.933 0-9.358-7.692-16.945-17.181-16.945-7.055 0-13.116 4.193-15.763 10.189-2.144-1.825-4.925-2.927-7.965-2.927-6.778 0-12.273 5.479-12.273 12.238a12.51 12.51 0 0 0 .05 1.117c-3.26 1.575-5.505 4.879-5.505 8.7 0 5.348 4.396 9.683 9.818 9.683h46.364c5.422 0 9.818-4.335 9.818-9.683 0-4.602-3.255-8.455-7.619-9.439z" fill="url(#L)"/></g><g filter="url(#H)"><path d="M141.592 83.208a11.68 11.68 0 0 1-.171 1.993c2.909.669 5.08 3.287 5.08 6.414 0 3.634-2.93 6.579-6.545 6.579h-9.823c-2.69-5.895-8.697-10-15.677-10a17.25 17.25 0 0 0-11.838 4.663c-.078-.41-.117-.826-.117-1.243a6.58 6.58 0 0 1 3.67-5.912c-.022-.25-.034-.503-.034-.759 0-4.593 3.663-8.315 8.182-8.315a8.07 8.07 0 0 1 5.31 1.989c1.764-4.075 5.805-6.924 10.508-6.924 6.327 0 11.455 5.156 11.455 11.515z" fill="url(#M)"/></g><g filter="url(#I)"><path d="M108.698 78.901c.863-2.142 1.992-4.167 3.362-6.027-3.69.412-7.369 1.58-10.805 3.564-7.478 4.318-12.186 11.563-13.465 19.371a12.36 12.36 0 0 1 2.937-.353c3.04 0 5.822 1.102 7.965 2.927a16.99 16.99 0 0 1 3.924-5.526c-.078-.41-.117-.826-.117-1.243a6.58 6.58 0 0 1 3.67-5.912c-.022-.25-.034-.503-.034-.759 0-2.38.984-4.527 2.561-6.043l.002.001z" fill="url(#N)"/></g><defs><filter id="A" x="32.718" y="16" width="159.773" height="164.807" filterUnits="userSpaceOnUse" class="B"><feFlood class="C"/><feBlend in="SourceGraphic"/><feGaussianBlur stdDeviation="26.5"/></filter><filter id="B" x="97.099" y="135.694" width="6.789" height="13.082" filterUnits="userSpaceOnUse" class="B"><feFlood class="C"/><feBlend in="SourceGraphic" result="B"/><feColorMatrix in="SourceAlpha" values="0 0 0 0 0 0 0 0 0 0 0 0 0 0 0 0 0 0 127 0" result="C"/><feOffset dy="9"/><feGaussianBlur stdDeviation="1.5"/><feComposite in2="C" operator="arithmetic" k2="-1" k3="1"/><feColorMatrix values="0 0 0 0 1 0 0 0 0 1 0 0 0 0 1 0 0 0 0.21 0"/><feBlend in2="B"/></filter><filter id="C" x="84.001" y="129.194" width="6.789" height="13.082" filterUnits="userSpaceOnUse" class="B"><feFlood class="C"/><feBlend in="SourceGraphic" result="B"/><feColorMatrix in="SourceAlpha" values="0 0 0 0 0 0 0 0 0 0 0 0 0 0 0 0 0 0 127 0" result="C"/><feOffset dy="9"/><feGaussianBlur stdDeviation="1.5"/><feComposite in2="C" operator="arithmetic" k2="-1" k3="1"/><feColorMatrix values="0 0 0 0 1 0 0 0 0 1 0 0 0 0 1 0 0 0 0.21 0"/><feBlend in2="B"/></filter><filter id="D" x="4.319" y="46.64" width="203.379" height="161.201" filterUnits="userSpaceOnUse" class="B"><feFlood class="C"/><feBlend in="SourceGraphic"/><feGaussianBlur stdDeviation="38.5"/></filter><filter id="E" x="109.291" y="127.194" width="19" height="24.5" filterUnits="userSpaceOnUse" class="B"><feFlood class="C"/><feBlend in="SourceGraphic" result="B"/><feColorMatrix in="SourceAlpha" values="0 0 0 0 0 0 0 0 0 0 0 0 0 0 0 0 0 0 127 0" result="C"/><feOffset dx="-2"/><feGaussianBlur stdDeviation="4.5"/><feComposite in2="C" operator="arithmetic" k2="-1" k3="1"/><feColorMatrix values="0 0 0 0 1 0 0 0 0 1 0 0 0 0 1 0 0 0 0.5 0"/><feBlend in2="B"/></filter><filter id="F" x="83.501" y="79.194" width="14.5" height="19" filterUnits="userSpaceOnUse" class="B"><feFlood class="C"/><feBlend in="SourceGraphic" result="B"/><feColorMatrix in="SourceAlpha" values="0 0 0 0 0 0 0 0 0 0 0 0 0 0 0 0 0 0 127 0" result="C"/><feOffset dy="11"/><feGaussianBlur stdDeviation="5"/><feComposite in2="C" operator="arithmetic" k2="-1" k3="1"/><feColorMatrix values="0 0 0 0 1 0 0 0 0 1 0 0 0 0 1 0 0 0 1 0"/><feBlend in2="B"/></filter><filter id="G" x="73" y="88.194" width="66" height="49" filterUnits="userSpaceOnUse" class="B"><feFlood class="C"/><feBlend in="SourceGraphic" result="B"/><feColorMatrix in="SourceAlpha" values="0 0 0 0 0 0 0 0 0 0 0 0 0 0 0 0 0 0 127 0" result="C"/><feOffset dy="11"/><feGaussianBlur stdDeviation="5"/><feComposite in2="C" operator="arithmetic" k2="-1" k3="1"/><feColorMatrix values="0 0 0 0 1 0 0 0 0 1 0 0 0 0 1 0 0 0 1 0"/><feBlend in2="B"/></filter><filter id="H" x="102.501" y="71.693" width="44" height="36.501" filterUnits="userSpaceOnUse" class="B"><feFlood class="C"/><feBlend in="SourceGraphic" result="B"/><feColorMatrix in="SourceAlpha" values="0 0 0 0 0 0 0 0 0 0 0 0 0 0 0 0 0 0 127 0" result="C"/><feOffset dy="11"/><feGaussianBlur stdDeviation="5"/><feComposite in2="C" operator="arithmetic" k2="-1" k3="1"/><feColorMatrix values="0 0 0 0 1 0 0 0 0 1 0 0 0 0 1 0 0 0 1 0"/><feBlend in2="B"/></filter><filter id="I" x="87.79" y="72.874" width="24.27" height="29.509" filterUnits="userSpaceOnUse" class="B"><feFlood class="C"/><feBlend in="SourceGraphic" result="B"/><feColorMatrix in="SourceAlpha" values="0 0 0 0 0 0 0 0 0 0 0 0 0 0 0 0 0 0 127 0" result="C"/><feOffset dy="4"/><feGaussianBlur stdDeviation="4"/><feComposite in2="C" operator="arithmetic" k2="-1" k3="1"/><feColorMatrix values="0 0 0 0 1 0 0 0 0 1 0 0 0 0 1 0 0 0 0.55 0"/><feBlend in2="B"/></filter><linearGradient id="J" x1="2043.99" y1="3399.02" x2="2468.07" y2="2989.69" xlink:href="#O"><stop stop-color="#f90"/><stop offset="1" stop-color="#ffee94"/></linearGradient><linearGradient id="K" x1="1249.62" y1="724.458" x2="1391.7" y2="560.745" xlink:href="#O"><stop stop-color="#fff" stop-opacity=".65"/><stop offset="1" stop-color="#fff" stop-opacity=".58"/></linearGradient><linearGradient id="L" x1="4904.07" y1="4300.9" x2="7522.89" y2="971.358" xlink:href="#O"><stop stop-color="#fff" stop-opacity=".65"/><stop offset="1" stop-color="#fff" stop-opacity=".58"/></linearGradient><linearGradient id="M" x1="6249.34" y1="2195.32" x2="5030.11" y2="703.208" xlink:href="#O"><stop stop-color="#fff" stop-opacity=".65"/><stop offset="1" stop-color="#fff" stop-opacity=".58"/></linearGradient><linearGradient id="N" x1="2743.05" y1="1417.96" x2="2480.71" y2="2929.3" xlink:href="#O"><stop stop-color="#ffee94"/><stop offset="1" stop-color="#f90"/></linearGradient><linearGradient id="O" gradientUnits="userSpaceOnUse"/></defs></svg>