<svg xmlns="http://www.w3.org/2000/svg" width="220" height="220" fill="none" xmlns:v="https://vecta.io/nano"><style><![CDATA[.B{color-interpolation-filters:sRGB}.C{flood-opacity:0}]]></style><g filter="url(#A)"><path d="M96.326 94.087a4.08 4.08 0 0 0 .056-.677c0-2.16-1.69-3.91-3.775-3.91-1.55 0-2.881.968-3.463 2.351-.471-.421-1.082-.675-1.75-.675-1.489 0-2.696 1.264-2.696 2.824l.011.258c-.716.364-1.209 1.126-1.209 2.008 0 1.234.966 2.234 2.157 2.234h10.186c1.191 0 2.157-1 2.157-2.234 0-1.062-.715-1.952-1.674-2.179z" fill="url(#D)"/></g><g filter="url(#B)"><path d="M131.38 118.378c.169-.953.256-1.933.256-2.933 0-9.358-7.693-16.945-17.182-16.945-7.054 0-13.116 4.193-15.762 10.189-2.144-1.825-4.925-2.927-7.965-2.927-6.778 0-12.273 5.479-12.273 12.238a12.51 12.51 0 0 0 .05 1.117c-3.259 1.574-5.504 4.879-5.504 8.7 0 5.348 4.396 9.683 9.818 9.683h46.364c5.422 0 9.818-4.335 9.818-9.683 0-4.602-3.256-8.455-7.62-9.439z" fill="url(#E)"/></g><g filter="url(#C)"><path d="M141.591 93.514a11.68 11.68 0 0 1-.171 1.993c2.91.669 5.08 3.286 5.08 6.414 0 3.634-2.93 6.579-6.546 6.579h-9.823c-2.689-5.895-8.697-10-15.677-10a17.25 17.25 0 0 0-11.838 4.663 6.65 6.65 0 0 1-.117-1.243 6.58 6.58 0 0 1 3.67-5.912 8.36 8.36 0 0 1-.034-.759c0-4.593 3.663-8.315 8.182-8.315 2.026 0 3.881.749 5.31 1.989 1.765-4.074 5.806-6.923 10.509-6.923 6.326 0 11.455 5.155 11.455 11.514z" fill="url(#F)"/></g><defs><filter id="A" x="83.5" y="89.5" width="14.5" height="19" filterUnits="userSpaceOnUse" class="B"><feFlood class="C"/><feBlend in="SourceGraphic" result="B"/><feColorMatrix in="SourceAlpha" values="0 0 0 0 0 0 0 0 0 0 0 0 0 0 0 0 0 0 127 0" result="C"/><feOffset dy="11"/><feGaussianBlur stdDeviation="5"/><feComposite in2="C" operator="arithmetic" k2="-1" k3="1"/><feColorMatrix values="0 0 0 0 1 0 0 0 0 1 0 0 0 0 1 0 0 0 1 0"/><feBlend in2="B"/></filter><filter id="B" x="73" y="98.5" width="66" height="49" filterUnits="userSpaceOnUse" class="B"><feFlood class="C"/><feBlend in="SourceGraphic" result="B"/><feColorMatrix in="SourceAlpha" values="0 0 0 0 0 0 0 0 0 0 0 0 0 0 0 0 0 0 127 0" result="C"/><feOffset dy="11"/><feGaussianBlur stdDeviation="5"/><feComposite in2="C" operator="arithmetic" k2="-1" k3="1"/><feColorMatrix values="0 0 0 0 1 0 0 0 0 1 0 0 0 0 1 0 0 0 1 0"/><feBlend in2="B"/></filter><filter id="C" x="102.499" y="82" width="44.001" height="36.5" filterUnits="userSpaceOnUse" class="B"><feFlood class="C"/><feBlend in="SourceGraphic" result="B"/><feColorMatrix in="SourceAlpha" values="0 0 0 0 0 0 0 0 0 0 0 0 0 0 0 0 0 0 127 0" result="C"/><feOffset dy="11"/><feGaussianBlur stdDeviation="5"/><feComposite in2="C" operator="arithmetic" k2="-1" k3="1"/><feColorMatrix values="0 0 0 0 1 0 0 0 0 1 0 0 0 0 1 0 0 0 1 0"/><feBlend in2="B"/></filter><linearGradient id="D" x1="84.422" y1="97.696" x2="99.512" y2="86.904" gradientUnits="userSpaceOnUse"><stop stop-color="#fff" stop-opacity=".65"/><stop offset="1" stop-color="#fff" stop-opacity=".58"/></linearGradient><linearGradient id="E" x1="77.198" y1="134.018" x2="143.56" y2="84.162" gradientUnits="userSpaceOnUse"><stop stop-color="#fff" stop-opacity=".65"/><stop offset="1" stop-color="#fff" stop-opacity=".58"/></linearGradient><linearGradient id="F" x1="143.701" y1="106.134" x2="98.855" y2="73.078" gradientUnits="userSpaceOnUse"><stop stop-color="#fff" stop-opacity=".65"/><stop offset="1" stop-color="#fff" stop-opacity=".58"/></linearGradient></defs></svg>