<svg xmlns="http://www.w3.org/2000/svg" width="220" height="220" fill="none" xmlns:v="https://vecta.io/nano"><style><![CDATA[.B{color-interpolation-filters:sRGB}.C{flood-opacity:0}.D{fill:#93c0f7}]]></style><g filter="url(#A)"><path d="M96.327 83.087a4.08 4.08 0 0 0 .056-.677c0-2.16-1.69-3.91-3.775-3.91-1.55 0-2.881.968-3.463 2.351-.471-.421-1.082-.675-1.75-.675-1.489 0-2.696 1.264-2.696 2.824l.011.258c-.716.364-1.209 1.126-1.209 2.008 0 1.234.966 2.234 2.157 2.234h10.186c1.191 0 2.157-1 2.157-2.234 0-1.062-.715-1.952-1.674-2.179z" fill="url(#G)"/></g><g filter="url(#B)"><path d="M131.381 107.378c.169-.953.256-1.933.256-2.933 0-9.358-7.693-16.945-17.182-16.945-7.054 0-13.116 4.193-15.762 10.189-2.144-1.825-4.925-2.927-7.965-2.927-6.778 0-12.273 5.479-12.273 12.238a12.51 12.51 0 0 0 .05 1.117c-3.26 1.575-5.505 4.879-5.505 8.701 0 5.348 4.396 9.683 9.818 9.683h46.364c5.422 0 9.818-4.335 9.818-9.683 0-4.602-3.256-8.455-7.62-9.439l.001-.001z" fill="url(#H)"/></g><g filter="url(#C)"><path fill-rule="evenodd" d="M141.592 82.514a11.68 11.68 0 0 1-.171 1.993c2.91.669 5.08 3.286 5.08 6.414 0 3.634-2.93 6.579-6.546 6.579h-9.823c-2.689-5.895-8.697-10-15.677-10a17.25 17.25 0 0 0-11.838 4.663c-.078-.409-.116-.825-.116-1.242a6.58 6.58 0 0 1 3.67-5.912 8.36 8.36 0 0 1-.034-.759c0-4.593 3.663-8.315 8.182-8.315 2.026 0 3.881.749 5.31 1.989 1.764-4.075 5.805-6.924 10.508-6.924 6.326 0 11.455 5.155 11.455 11.514z" fill="url(#I)"/></g><g filter="url(#D)" class="D"><path d="M91.788 141c-.081 0-.159-.033-.217-.091s-.09-.138-.09-.221v-.808l-.396.404c-.057.058-.136.091-.217.091s-.159-.033-.217-.092-.09-.138-.09-.221.032-.162.09-.221l.829-.846v-2.454l-2.083 1.227-.304 1.156c-.01.04-.028.077-.053.109a.31.31 0 0 1-.09.081c-.035.021-.073.034-.113.039s-.081.003-.12-.008c-.078-.021-.145-.074-.186-.146a.31.31 0 0 1-.03-.237l.145-.551-.686.404c-.035.02-.073.033-.113.039a.3.3 0 0 1-.119-.009.31.31 0 0 1-.185-.145c-.04-.071-.052-.156-.031-.236s.071-.148.141-.19l.686-.404-.542-.148a.31.31 0 0 1-.107-.054c-.032-.025-.059-.056-.079-.092s-.033-.075-.038-.116a.32.32 0 0 1 .008-.122c.011-.04.029-.077.053-.109a.32.32 0 0 1 .09-.08c.035-.02.073-.034.113-.039a.3.3 0 0 1 .119.008l1.132.309L91.176 136l-2.083-1.227-1.133.309c-.039.01-.079.012-.118.006s-.077-.019-.111-.04a.31.31 0 0 1-.14-.189c-.02-.08-.01-.163.029-.235a.3.3 0 0 1 .182-.146l.541-.148-.686-.404a.31.31 0 0 1-.091-.08c-.025-.033-.043-.07-.053-.11s-.013-.081-.008-.122.018-.08.038-.116.047-.067.079-.092.069-.043.108-.054.08-.013.12-.007a.3.3 0 0 1 .113.04l.686.404-.145-.552a.32.32 0 0 1-.01-.123c.005-.041.018-.081.038-.117s.047-.068.079-.093.069-.044.108-.055a.29.29 0 0 1 .121-.008.31.31 0 0 1 .204.122c.024.033.042.071.052.111l.303 1.156 2.084 1.227v-2.454l-.829-.846a.31.31 0 0 1-.066-.101.32.32 0 0 1 0-.239.31.31 0 0 1 .066-.101c.028-.029.062-.052.099-.068s.077-.024.117-.024.08.008.117.024.071.039.099.068l.396.404v-.808c0-.083.032-.162.09-.221s.135-.091.217-.091.159.033.217.091.09.138.09.221v.808l.396-.404c.058-.059.136-.092.217-.092s.159.033.217.092.09.138.09.221-.032.162-.09.221l-.83.846v2.454l2.083-1.227.304-1.156c.021-.08.073-.148.143-.19.035-.021.073-.034.113-.039s.081-.003.12.008c.078.021.145.074.186.146s.051.157.03.237l-.145.551.686-.404c.035-.02.073-.033.113-.039a.3.3 0 0 1 .119.009.31.31 0 0 1 .185.145.32.32 0 0 1 .031.236c-.021.08-.072.148-.141.19l-.686.404.541.148a.31.31 0 0 1 .186.146c.041.072.051.157.03.237s-.073.148-.143.19c-.035.021-.073.034-.113.039s-.081.003-.12-.008l-1.132-.309L92.401 136l2.083 1.227 1.133-.309c.039-.011.08-.014.12-.008s.079.018.113.039c.07.041.122.11.143.19s.01.165-.031.237a.31.31 0 0 1-.186.146l-.541.148.686.404a.31.31 0 0 1 .141.19c.02.08.01.165-.031.236s-.107.124-.185.145a.3.3 0 0 1-.119.009c-.04-.006-.078-.019-.113-.039l-.686-.404.145.552a.34.34 0 0 1 .01.123c-.004.041-.018.081-.038.117s-.047.068-.079.093-.069.044-.108.055a.29.29 0 0 1-.121.008.31.31 0 0 1-.114-.04c-.035-.021-.066-.049-.09-.082s-.042-.071-.052-.111l-.303-1.156-2.083-1.227v2.454l.829.846a.32.32 0 0 1 .09.221c0 .083-.032.163-.09.221s-.135.092-.217.092-.159-.033-.217-.091l-.396-.404v.808c0 .083-.032.162-.09.221a.3.3 0 0 1-.216.091V141z"/></g><g filter="url(#E)" class="D"><path d="M118.593 141c-.078 0-.152-.033-.207-.091s-.086-.138-.086-.221v-.808l-.378.404c-.055.058-.129.091-.207.091s-.152-.033-.207-.092-.086-.138-.086-.221.031-.162.086-.221l.791-.846v-2.454l-1.988 1.227-.29 1.156c-.019.079-.068.147-.137.19a.28.28 0 0 1-.222.031.29.29 0 0 1-.177-.146c-.038-.072-.049-.157-.029-.237l.139-.551-.655.404c-.067.041-.147.051-.221.03s-.138-.074-.177-.145-.049-.156-.029-.236.067-.147.135-.19l.655-.404-.517-.148c-.037-.011-.072-.029-.102-.054s-.056-.056-.075-.092-.032-.075-.037-.116-.002-.082.008-.122.027-.077.051-.109a.3.3 0 0 1 .086-.08.28.28 0 0 1 .108-.039c.038-.005.077-.003.114.008l1.081.309 1.989-1.227-1.988-1.227-1.082.309c-.074.02-.153.008-.219-.034s-.114-.109-.134-.189a.33.33 0 0 1 .028-.235c.038-.072.1-.124.174-.146l.516-.148-.655-.404c-.034-.021-.064-.048-.087-.08s-.041-.07-.051-.11-.013-.081-.008-.122.018-.08.037-.116.045-.067.076-.092a.3.3 0 0 1 .103-.054c.037-.011.076-.013.114-.007s.075.019.108.04l.655.404-.139-.552a.32.32 0 0 1-.009-.123.34.34 0 0 1 .036-.117.3.3 0 0 1 .076-.093c.031-.025.066-.044.103-.055a.28.28 0 0 1 .115-.008c.038.005.076.019.109.04s.063.049.086.082.04.071.049.111l.289 1.156 1.989 1.227v-2.454l-.791-.846a.32.32 0 0 1-.064-.101c-.015-.038-.022-.079-.022-.12a.35.35 0 0 1 .022-.12c.014-.038.036-.072.063-.101a.29.29 0 0 1 .095-.068c.036-.016.073-.024.112-.024s.077.008.112.024a.29.29 0 0 1 .095.068l.378.404v-.808c0-.083.031-.162.086-.221a.28.28 0 0 1 .207-.091c.078 0 .152.033.207.091s.086.138.086.221v.808l.378-.404c.055-.059.129-.092.207-.092s.152.033.207.092.086.138.085.221a.33.33 0 0 1-.086.221l-.792.846v2.454l1.988-1.227.29-1.156a.31.31 0 0 1 .136-.19.28.28 0 0 1 .222-.031.29.29 0 0 1 .177.146.33.33 0 0 1 .029.237l-.138.551.655-.404c.067-.041.147-.051.221-.03s.138.074.177.145.049.156.029.236-.067.147-.135.19l-.655.404.516.148c.075.022.139.074.177.146a.33.33 0 0 1 .029.237.31.31 0 0 1-.136.19.28.28 0 0 1-.222.031l-1.081-.309-1.986 1.229 1.988 1.227 1.081-.309c.075-.022.155-.01.222.031a.31.31 0 0 1 .136.19.33.33 0 0 1-.029.237.3.3 0 0 1-.178.146l-.516.148.655.404c.068.043.116.112.135.19s.01.164-.029.236-.102.124-.177.145-.154.011-.221-.03l-.655-.404.138.552a.32.32 0 0 1 .009.123.34.34 0 0 1-.036.117.31.31 0 0 1-.076.093c-.031.025-.066.044-.103.055a.28.28 0 0 1-.224-.032c-.034-.021-.063-.049-.086-.082s-.04-.071-.049-.111l-.289-1.156-1.988-1.227v2.454l.791.846c.055.059.086.138.086.221s-.031.163-.086.221-.129.092-.207.092-.152-.033-.207-.091l-.378-.404v.808c0 .083-.031.162-.086.221a.28.28 0 0 1-.206.091V141z"/></g><g filter="url(#F)" class="D"><path d="M105.003 149c-.085 0-.167-.033-.227-.092a.31.31 0 0 1-.094-.22v-.809l-.416.405a.33.33 0 0 1-.228.091c-.085 0-.167-.033-.228-.092s-.094-.138-.094-.221a.31.31 0 0 1 .025-.12c.016-.038.039-.072.069-.101l.87-.845v-2.455l-2.187 1.227-.319 1.156c-.022.08-.076.149-.15.19s-.162.052-.244.031a.32.32 0 0 1-.195-.146c-.042-.072-.054-.157-.032-.237l.152-.551-.721.403c-.074.041-.161.052-.243.03a.32.32 0 0 1-.194-.145c-.042-.071-.054-.156-.032-.236s.075-.148.148-.19l.72-.404-.569-.148a.32.32 0 0 1-.113-.054c-.034-.025-.062-.056-.083-.092s-.035-.074-.04-.115-.003-.082.008-.122.03-.077.056-.109a.33.33 0 0 1 .094-.081c.037-.02.077-.033.119-.039a.33.33 0 0 1 .125.009l1.189.309 2.19-1.227-2.187-1.227-1.19.309c-.082.02-.168.008-.241-.034-.036-.02-.067-.047-.092-.079s-.044-.07-.055-.109c-.022-.079-.011-.164.031-.235a.32.32 0 0 1 .191-.146l.568-.148-.72-.404c-.037-.02-.069-.047-.095-.08a.31.31 0 0 1-.056-.11c-.011-.04-.014-.081-.009-.122s.019-.08.04-.116.049-.067.083-.092.072-.043.113-.054c.083-.021.17-.01.245.032l.721.404-.152-.552a.3.3 0 0 1-.01-.123c.005-.041.019-.081.04-.117s.049-.068.083-.093.072-.044.114-.055a.33.33 0 0 1 .246.033c.036.021.068.049.094.082a.31.31 0 0 1 .054.111l.318 1.156 2.188 1.227v-2.455l-.87-.846c-.03-.029-.054-.063-.07-.101a.33.33 0 0 1-.025-.12c-.001-.041.008-.082.024-.12s.04-.072.07-.101a.33.33 0 0 1 .104-.068c.039-.016.081-.024.123-.024s.084.008.123.024.075.039.104.068l.416.404v-.808a.31.31 0 0 1 .094-.221c.06-.059.142-.091.227-.091s.167.033.227.091.094.138.094.221v.808l.416-.404c.06-.059.142-.092.228-.092s.167.033.227.092a.31.31 0 0 1 .094.221c0 .083-.034.162-.095.221l-.871.846v2.455l2.187-1.227.319-1.156c.022-.08.076-.148.15-.19a.33.33 0 0 1 .244-.031.32.32 0 0 1 .195.146c.043.072.054.157.032.237l-.152.551.72-.404c.074-.041.161-.052.243-.03a.32.32 0 0 1 .194.145.3.3 0 0 1 .032.236c-.022.08-.075.148-.148.19l-.72.404.568.148c.082.021.153.074.195.146s.054.157.032.237-.076.148-.15.19a.33.33 0 0 1-.244.03l-1.189-.309-2.183 1.229 2.187 1.227 1.189-.309c.082-.022.17-.011.244.031.036.02.068.047.094.079a.31.31 0 0 1 .056.11c.022.08.011.166-.032.238a.32.32 0 0 1-.195.145l-.568.148.721.404c.073.042.127.11.148.19a.31.31 0 0 1-.032.236.32.32 0 0 1-.194.145c-.082.022-.169.011-.243-.03l-.721-.403.152.551a.3.3 0 0 1 .01.123c-.005.041-.019.081-.04.117s-.049.068-.083.093-.073.044-.114.055-.084.013-.127.008-.083-.02-.12-.041-.068-.049-.094-.082-.044-.071-.054-.111l-.318-1.156-2.187-1.227v2.455l.87.845a.31.31 0 0 1 .094.221c0 .083-.034.163-.094.221a.33.33 0 0 1-.228.092c-.085 0-.167-.032-.228-.091l-.416-.405v.809c0 .082-.034.162-.094.22s-.141.092-.226.092z"/></g><defs><filter id="A" x="83.501" y="78.5" width="14.5" height="19" filterUnits="userSpaceOnUse" class="B"><feFlood class="C"/><feBlend in="SourceGraphic" result="B"/><feColorMatrix in="SourceAlpha" values="0 0 0 0 0 0 0 0 0 0 0 0 0 0 0 0 0 0 127 0" result="C"/><feOffset dy="11"/><feGaussianBlur stdDeviation="5"/><feComposite in2="C" operator="arithmetic" k2="-1" k3="1"/><feColorMatrix values="0 0 0 0 1 0 0 0 0 1 0 0 0 0 1 0 0 0 1 0"/><feBlend in2="B"/></filter><filter id="B" x="73" y="87.5" width="66" height="49.001" filterUnits="userSpaceOnUse" class="B"><feFlood class="C"/><feBlend in="SourceGraphic" result="B"/><feColorMatrix in="SourceAlpha" values="0 0 0 0 0 0 0 0 0 0 0 0 0 0 0 0 0 0 127 0" result="C"/><feOffset dy="11"/><feGaussianBlur stdDeviation="5"/><feComposite in2="C" operator="arithmetic" k2="-1" k3="1"/><feColorMatrix values="0 0 0 0 1 0 0 0 0 1 0 0 0 0 1 0 0 0 1 0"/><feBlend in2="B"/></filter><filter id="C" x="102.501" y="71" width="44" height="36.5" filterUnits="userSpaceOnUse" class="B"><feFlood class="C"/><feBlend in="SourceGraphic" result="B"/><feColorMatrix in="SourceAlpha" values="0 0 0 0 0 0 0 0 0 0 0 0 0 0 0 0 0 0 127 0" result="C"/><feOffset dy="11"/><feGaussianBlur stdDeviation="5"/><feComposite in2="C" operator="arithmetic" k2="-1" k3="1"/><feColorMatrix values="0 0 0 0 1 0 0 0 0 1 0 0 0 0 1 0 0 0 1 0"/><feBlend in2="B"/></filter><filter id="D" x="87.502" y="131" width="8.571" height="13.002" filterUnits="userSpaceOnUse" class="B"><feFlood class="C"/><feBlend in="SourceGraphic" result="B"/><feColorMatrix in="SourceAlpha" values="0 0 0 0 0 0 0 0 0 0 0 0 0 0 0 0 0 0 127 0" result="C"/><feOffset dy="9"/><feGaussianBlur stdDeviation="1.5"/><feComposite in2="C" operator="arithmetic" k2="-1" k3="1"/><feColorMatrix values="0 0 0 0 1 0 0 0 0 1 0 0 0 0 1 0 0 0 0.21 0"/><feBlend in2="B"/></filter><filter id="E" x="114.501" y="130.999" width="8.181" height="13.003" filterUnits="userSpaceOnUse" class="B"><feFlood class="C"/><feBlend in="SourceGraphic" result="B"/><feColorMatrix in="SourceAlpha" values="0 0 0 0 0 0 0 0 0 0 0 0 0 0 0 0 0 0 127 0" result="C"/><feOffset dy="9"/><feGaussianBlur stdDeviation="1.5"/><feComposite in2="C" operator="arithmetic" k2="-1" k3="1"/><feColorMatrix values="0 0 0 0 1 0 0 0 0 1 0 0 0 0 1 0 0 0 0.21 0"/><feBlend in2="B"/></filter><filter id="F" x="100.502" y="138.999" width="8.999" height="13.001" filterUnits="userSpaceOnUse" class="B"><feFlood class="C"/><feBlend in="SourceGraphic" result="B"/><feColorMatrix in="SourceAlpha" values="0 0 0 0 0 0 0 0 0 0 0 0 0 0 0 0 0 0 127 0" result="C"/><feOffset dy="9"/><feGaussianBlur stdDeviation="1.5"/><feComposite in2="C" operator="arithmetic" k2="-1" k3="1"/><feColorMatrix values="0 0 0 0 1 0 0 0 0 1 0 0 0 0 1 0 0 0 0.21 0"/><feBlend in2="B"/></filter><linearGradient id="G" x1="84.423" y1="86.696" x2="99.513" y2="75.904" gradientUnits="userSpaceOnUse"><stop stop-color="#fff" stop-opacity=".65"/><stop offset="1" stop-color="#fff" stop-opacity=".58"/></linearGradient><linearGradient id="H" x1="77.199" y1="123.018" x2="143.561" y2="73.162" gradientUnits="userSpaceOnUse"><stop stop-color="#fff" stop-opacity=".65"/><stop offset="1" stop-color="#fff" stop-opacity=".58"/></linearGradient><linearGradient id="I" x1="143.702" y1="95.134" x2="98.856" y2="62.078" gradientUnits="userSpaceOnUse"><stop stop-color="#fff" stop-opacity=".65"/><stop offset="1" stop-color="#fff" stop-opacity=".58"/></linearGradient></defs></svg>